<svg version="1.1" id="Layer_1" xmlns="http://www.w3.org/2000/svg" xmlns:xlink="http://www.w3.org/1999/xlink" x="0px" y="0px"
	 width="100%" viewBox="0 0 250 250" enable-background="new 0 0 250 250" xml:space="preserve">
<path fill="#47704C" opacity="1.000000" stroke="none" 
	d="
M142.000000,251.000000 
	C94.666672,251.000000 47.833340,251.000000 1.000006,251.000000 
	C1.000004,167.666672 1.000004,84.333351 1.000002,1.000018 
	C84.333321,1.000012 167.666641,1.000012 250.999969,1.000006 
	C250.999969,84.333321 250.999969,167.666641 250.999985,250.999969 
	C214.833328,251.000000 178.666672,251.000000 142.000000,251.000000 
M173.972687,110.395294 
	C173.652344,110.287643 173.331985,110.179993 172.431717,110.046692 
	C170.010498,110.266129 167.364075,110.291191 168.956299,113.985542 
	C168.956299,113.985542 168.994049,113.941406 169.060455,114.860558 
	C169.062790,118.209053 169.065140,121.557549 169.514481,125.278595 
	C170.301147,124.861076 171.087830,124.443558 171.940567,123.132492 
	C171.910324,120.740410 171.880081,118.348335 171.933319,115.461823 
	C171.980438,115.301453 172.027542,115.141083 172.585693,114.798729 
	C173.047104,114.520348 173.508499,114.241974 174.670135,113.850990 
	C174.481735,112.875061 174.293335,111.899139 174.023743,110.962074 
	C174.023743,110.962074 174.099060,110.932549 173.972687,110.395294 
M179.021057,143.007065 
	C179.021057,143.007065 179.007660,143.027023 178.608109,143.520386 
	C178.417938,144.333359 178.227753,145.146347 178.031876,146.011612 
	C178.031876,146.011612 178.003021,146.055603 177.476822,146.513535 
	C176.658691,149.018890 175.840561,151.524246 175.012131,154.013351 
	C175.012131,154.013351 175.009186,154.020645 174.590652,154.456833 
	C174.431656,155.035553 174.272644,155.614288 174.070602,156.518555 
	C174.070602,156.518555 174.019562,156.842941 173.625107,157.267044 
	C173.461349,157.615585 173.297577,157.964127 173.057297,158.493423 
	C173.057297,158.493423 172.972321,158.670349 172.571838,159.313568 
	C172.424301,160.041382 172.276764,160.769211 171.971176,162.115021 
	C171.569977,163.097107 171.168777,164.079193 170.328812,165.257904 
	C171.561508,165.518433 172.794220,165.778961 174.056732,166.049484 
	C174.056732,166.049484 174.083969,166.070328 174.590744,165.839691 
	C175.032318,163.846710 175.473877,161.853745 175.948730,159.435760 
	C175.948730,159.435760 175.981247,159.010681 175.998245,158.999466 
	C175.998245,158.999466 176.009415,158.982758 176.892944,158.989563 
	C186.280624,159.040115 186.797607,159.582626 184.155579,167.266754 
	C187.533325,167.266754 190.739502,167.266754 194.092224,167.266754 
	C190.689606,158.868759 187.665680,151.041412 184.263657,143.382004 
	C183.722748,142.164200 181.481583,141.701569 179.627991,141.332703 
	C179.428925,141.883484 179.229858,142.434265 179.021057,143.007065 
M102.422775,114.252296 
	C102.272430,113.855576 102.122086,113.458862 101.419151,113.134071 
	C100.909729,113.356316 100.400314,113.578560 99.202156,113.912430 
	C98.285927,114.018776 97.369690,114.125122 96.162689,113.668015 
	C94.039192,111.717972 93.490173,112.677994 93.522827,115.031326 
	C93.575989,118.861435 93.537178,122.692818 93.537178,126.736687 
	C99.191383,128.195435 96.286629,122.694473 98.689369,121.044357 
	C99.742889,120.593040 100.796410,120.141731 101.848167,119.027443 
	C101.930290,117.609451 102.012413,116.191467 102.021317,114.666382 
	C102.021317,114.666382 101.985062,114.541458 102.422775,114.252296 
M69.138107,114.987404 
	C69.537338,114.869499 69.936562,114.751602 70.335793,114.633705 
	C69.855530,114.052414 69.375267,113.471123 68.424248,112.414322 
	C66.937080,112.276901 65.449913,112.139481 63.386578,111.948822 
	C64.207191,112.983406 64.565002,113.434517 64.635864,114.402229 
	C65.989502,114.549667 67.343132,114.697105 69.138107,114.987404 
M68.451813,125.386818 
	C69.171783,125.087013 69.891747,124.787209 70.611710,124.487404 
	C70.096588,124.152214 69.581474,123.817024 68.353455,123.892761 
	C66.994232,123.971039 65.635017,124.049316 63.720936,123.746483 
	C63.240932,120.734955 62.760933,117.723427 62.205280,114.237267 
	C58.253040,117.011726 58.465282,120.355751 59.936634,123.274223 
	C60.519787,124.430931 63.268238,124.496010 65.764511,125.038048 
	C66.499374,125.065163 67.234245,125.092278 68.451813,125.386818 
M204.569473,142.981323 
	C205.689606,142.727341 206.809753,142.473373 207.829849,141.699478 
	C205.988403,141.676331 204.146957,141.653183 201.674301,141.861084 
	C196.588074,145.946472 196.954987,150.961395 202.489609,154.039932 
	C204.496048,155.155960 206.617004,156.268921 208.202972,157.863434 
	C209.182159,158.847885 210.042618,161.155273 209.534607,162.120270 
	C208.842453,163.435104 206.891144,164.424164 205.297363,164.821533 
	C204.000656,165.144836 202.435776,164.392624 200.852585,163.407715 
	C200.253098,162.050919 199.653625,160.694122 199.054138,159.337326 
	C198.386551,159.465576 197.718979,159.593826 197.051392,159.722061 
	C197.370346,161.744217 197.689316,163.766373 198.116135,165.858673 
	C198.116135,165.858673 198.133194,165.986176 198.339554,166.155823 
	C198.339554,166.155823 198.730881,166.160858 198.730881,166.160858 
	C198.730881,166.160858 199.064224,165.934418 199.540100,166.026566 
	C199.540100,166.026566 200.016403,166.116531 200.450134,166.453842 
	C200.964233,166.647964 201.478317,166.842087 202.576569,167.448792 
	C205.153915,167.316193 208.285904,168.041153 210.163544,166.826736 
	C212.347900,165.413956 214.867264,162.148514 214.632858,159.967422 
	C214.340652,157.248184 211.866928,154.145203 209.464920,152.418427 
	C206.019089,149.941269 202.123322,148.318787 203.438828,142.970032 
	C203.438828,142.970032 203.852173,142.951370 204.569473,142.981323 
M141.003479,125.004837 
	C141.003479,125.004837 140.966949,125.038177 141.725052,125.042229 
	C142.481918,125.070686 143.238800,125.099144 144.488571,125.478325 
	C145.046829,125.705009 145.605087,125.931694 146.538620,126.746010 
	C147.385010,125.487473 149.002655,124.181641 148.928925,122.979546 
	C148.730927,119.751556 147.809662,116.567932 147.118256,113.077141 
	C145.253738,113.077141 143.116058,113.077141 140.316849,113.139748 
	C139.525391,113.764351 138.733932,114.388962 137.303131,115.516624 
	C137.507797,118.661331 137.712463,121.806038 138.449020,125.399529 
	C139.123749,125.513153 139.798492,125.626785 140.610901,125.488945 
	C140.733292,125.336159 140.848007,125.177795 141.003479,125.004837 
M116.913544,126.338341 
	C117.271065,125.870407 117.628578,125.402473 118.672951,124.580078 
	C118.271645,120.472084 117.870346,116.364090 117.466530,112.256195 
	C115.332970,112.836502 113.199417,113.416801 110.888756,114.031670 
	C110.888756,114.031670 110.773262,113.893044 110.590332,113.561371 
	C110.436394,113.355453 110.246185,113.191650 109.430756,113.158401 
	C108.925911,113.458572 108.421059,113.758743 107.281448,114.581642 
	C107.245285,118.006416 107.209122,121.431198 107.361824,125.639748 
	C110.468521,125.973717 113.575211,126.307686 116.913544,126.338341 
M110.442291,163.652939 
	C110.472778,162.893799 110.503265,162.134659 110.533760,161.375519 
	C110.043358,161.596985 109.552956,161.818451 108.729851,162.532867 
	C107.917412,163.035965 107.104973,163.539062 105.394669,164.002899 
	C103.796204,163.862228 102.197731,163.721573 99.677620,163.499802 
	C100.117043,156.415451 100.539505,149.604614 101.014610,142.289551 
	C98.721001,140.073669 94.165688,140.451385 92.898880,143.905396 
	C92.891365,145.893158 92.785110,147.886444 92.895897,149.867584 
	C93.167068,154.717270 93.538483,159.561356 93.911629,165.076370 
	C93.914291,165.299683 93.916962,165.523010 93.612869,166.081039 
	C98.917007,166.063538 104.221138,166.046036 109.713577,165.697586 
	C109.820419,165.141190 109.927269,164.584793 110.442291,163.652939 
M50.052948,166.867508 
	C51.381382,166.587967 52.709816,166.308426 54.601284,165.792908 
	C63.246986,161.638687 66.135338,155.117752 62.437870,148.100449 
	C59.625549,142.763031 54.675766,140.356400 51.004173,142.541290 
	C60.690105,151.970779 60.344467,160.165756 49.482456,164.998077 
	C49.292416,164.969055 49.102379,164.940033 48.459766,164.266769 
	C45.911194,164.191650 44.798027,163.183060 44.922016,160.343246 
	C45.188179,154.247086 45.043652,148.133011 44.429840,141.624130 
	C42.580898,141.523773 40.731956,141.423401 38.834713,141.320419 
	C38.834713,150.005264 38.834713,157.931137 38.562469,166.181854 
	C42.154354,166.393738 45.746235,166.605621 50.052948,166.867508 
M79.348732,152.154465 
	C77.912338,152.079376 76.475952,152.004303 75.006508,151.049911 
	C75.444427,148.535522 75.882355,146.021118 76.320274,143.506729 
	C79.553322,144.445557 82.786369,145.384369 87.403008,146.724945 
	C86.223923,144.481064 85.426010,141.260651 84.323929,141.152954 
	C78.872398,140.620255 73.340454,140.910355 68.970924,140.910355 
	C68.970924,149.855225 68.970924,157.444809 68.300415,165.035919 
	C67.760880,165.335281 67.221344,165.634644 66.681808,165.934006 
	C67.673981,166.593491 68.651611,167.793823 69.660805,167.820969 
	C74.647202,167.955109 79.644699,167.858765 84.632904,167.687210 
	C88.747528,167.545700 88.524071,165.655472 87.029610,163.742432 
	C82.574120,164.220428 78.841400,164.620895 75.023117,164.104858 
	C74.798180,153.273788 75.169746,152.837372 82.630463,155.169708 
	C82.849449,154.771591 83.068443,154.373459 83.287430,153.975342 
	C82.200012,153.377197 81.112587,152.779053 79.348732,152.154465 
M134.943893,145.963684 
	C134.943893,145.963684 135.036118,145.900253 135.694702,145.684769 
	C141.226669,140.908737 145.873901,143.200623 150.063400,148.662796 
	C151.832581,143.508057 150.396744,140.918579 146.266617,140.434509 
	C143.569702,140.118423 140.762436,140.743729 137.292099,141.081573 
	C132.098846,142.667740 128.495956,145.716782 128.262558,151.507751 
	C128.047455,156.844940 127.860626,162.282120 134.257263,165.530914 
	C138.181107,168.378754 145.716751,168.847473 148.944794,166.146362 
	C149.924911,165.326263 150.173721,163.632233 150.758514,162.336151 
	C146.214890,163.352417 142.648361,164.150146 138.607178,164.444260 
	C132.427765,160.264648 134.314987,153.813690 134.325211,147.573135 
	C134.525314,147.073456 134.725418,146.573776 134.943893,145.963684 
M182.222183,119.589073 
	C182.426468,119.832253 182.677933,120.007874 183.343781,120.621544 
	C183.971786,122.238518 184.324661,124.057106 185.314941,125.408638 
	C186.105865,126.488091 187.672897,126.998878 188.895447,127.762085 
	C189.497971,126.520126 190.862183,125.042900 190.564453,124.079002 
	C189.550278,120.795555 188.059921,117.637642 186.502747,114.557480 
	C186.073013,113.707443 184.700882,112.733307 183.901840,112.842812 
	C183.133865,112.948044 182.196899,114.299828 181.970505,115.254723 
	C181.682449,116.469765 182.034637,117.836601 182.222183,119.589073 
M161.918533,113.998047 
	C159.093552,107.895058 154.046768,112.345322 150.426727,110.848846 
	C150.426727,116.958359 150.426727,122.393646 150.426727,127.909424 
	C154.307190,127.909424 158.127594,127.909424 162.565918,127.802437 
	C163.175323,127.154434 164.391159,126.396683 164.296936,125.876022 
	C163.623962,122.157387 162.683975,118.487076 161.918533,113.998047 
M123.919189,142.932770 
	C128.589035,140.934738 124.998558,137.177948 125.277840,133.486816 
	C121.365158,136.058701 117.452477,138.630569 113.189392,141.432770 
	C113.828819,141.867905 114.687195,142.452057 115.453217,143.042313 
	C115.453217,143.042313 115.435127,142.951538 115.851364,143.603806 
	C116.252419,144.241760 116.653465,144.879700 117.091248,145.747818 
	C117.091248,145.747818 117.039047,145.974945 117.252678,146.899704 
	C117.204056,152.179031 117.155441,157.458359 116.914864,163.405533 
	C115.894836,166.273270 117.642189,167.288666 119.865700,166.849792 
	C121.096107,166.606934 122.903526,164.874374 122.947433,163.754364 
	C123.218620,156.837814 123.062065,149.904510 123.919189,142.932770 
M165.553558,166.654907 
	C165.043839,166.099625 164.534119,165.544357 163.999557,164.053543 
	C163.999557,156.507721 163.999557,148.961884 163.999557,141.319458 
	C161.623459,141.319458 159.047287,141.319458 157.066132,141.319458 
	C157.066132,150.137344 157.066132,158.635544 157.066132,168.042801 
	C159.323334,167.728638 162.148331,167.335449 165.553558,166.654907 
M119.394585,94.899078 
	C124.865326,100.242744 130.052658,99.614120 133.977264,93.131874 
	C137.202957,87.804024 136.831970,81.450470 132.998398,76.367851 
	C128.763824,70.753571 120.460854,71.686913 117.729103,78.189514 
	C115.404709,83.722404 115.794754,89.172783 119.394585,94.899078 
M80.862114,112.543320 
	C79.192406,116.467117 77.522697,120.390915 75.852989,124.314713 
	C79.452133,123.535027 82.157967,120.787537 82.608543,126.468796 
	C82.654251,127.045189 85.057808,127.773575 86.367455,127.774109 
	C87.069397,127.774391 88.528130,126.014069 88.359413,125.658630 
	C86.222755,121.157318 83.851929,116.767151 80.862114,112.543320 
M125.478966,112.381157 
	C124.893707,112.827164 124.308449,113.273170 123.723183,113.719170 
	C128.075500,117.975334 125.220024,122.474319 124.001633,127.359604 
	C126.088722,127.359604 127.998619,127.359604 129.661835,127.359604 
	C129.661835,122.299461 129.661835,117.817345 129.661835,112.773567 
	C128.914078,112.663002 127.499390,112.453835 125.478966,112.381157 
M175.941040,125.896286 
	C178.022598,126.887779 180.104156,127.879272 182.185699,128.870773 
	C182.536728,128.425308 182.887741,127.979858 183.238770,127.534409 
	C182.729904,125.340576 182.221039,123.146736 181.474106,119.926521 
	C179.154739,122.085190 177.559982,123.569466 175.941040,125.896286 
M212.054337,142.834763 
	C211.811707,143.680359 211.569061,144.525970 211.326416,145.371582 
	C211.840240,145.397476 212.354065,145.423386 212.867889,145.449295 
	C212.720657,144.713745 212.573441,143.978195 212.054337,142.834763 
z"/>
<path fill="#543C29" opacity="1.000000" stroke="none" 
	d="
M119.151070,94.633186 
	C115.794754,89.172783 115.404709,83.722404 117.729103,78.189514 
	C120.460854,71.686913 128.763824,70.753571 132.998398,76.367851 
	C136.831970,81.450470 137.202957,87.804024 133.977264,93.131874 
	C130.052658,99.614120 124.865326,100.242744 119.151070,94.633186 
z"/>
<path fill="#604A39" opacity="1.000000" stroke="none" 
	d="
M172.972321,158.670349 
	C172.972321,158.670349 173.057297,158.493423 173.309601,158.200653 
	C173.714447,157.552917 173.867004,157.197922 174.019562,156.842941 
	C174.019562,156.842941 174.070602,156.518555 174.285721,156.122772 
	C174.670288,155.158203 174.839737,154.589417 175.009186,154.020645 
	C175.009186,154.020645 175.012131,154.013351 175.239044,154.183716 
	C176.046768,154.558197 176.728210,155.070404 177.192780,154.918671 
	C181.694366,153.448273 181.955719,150.369293 178.003021,146.055603 
	C178.003021,146.055603 178.031876,146.011612 178.247116,145.749420 
	C178.644119,144.667145 178.825897,143.847092 179.007660,143.027023 
	C179.007660,143.027023 179.021057,143.007065 179.249664,142.797241 
	C179.661011,142.021545 179.843750,141.455688 180.026489,140.889816 
	C181.481583,141.701569 183.722748,142.164200 184.263657,143.382004 
	C187.665680,151.041412 190.689606,158.868759 194.092224,167.266754 
	C190.739502,167.266754 187.533325,167.266754 184.155579,167.266754 
	C186.797607,159.582626 186.280624,159.040115 176.423538,158.947937 
	C175.954132,158.906296 175.981247,159.010681 175.981247,159.010681 
	C175.981247,159.010681 175.948730,159.435760 175.645248,159.752441 
	C174.578201,160.729584 173.814621,161.390076 173.026001,161.869293 
	C173.000946,161.688019 172.981369,161.322540 173.002472,160.881348 
	C173.006470,159.850235 172.989395,159.260284 172.972321,158.670349 
z"/>
<path fill="#563F2C" opacity="1.000000" stroke="none" 
	d="
M203.033066,143.051132 
	C202.123322,148.318787 206.019089,149.941269 209.464920,152.418427 
	C211.866928,154.145203 214.340652,157.248184 214.632858,159.967422 
	C214.867264,162.148514 212.347900,165.413956 210.163544,166.826736 
	C208.285904,168.041153 205.153915,167.316193 202.074829,167.058197 
	C201.054184,166.483917 200.535294,166.300232 200.016403,166.116531 
	C200.016403,166.116531 199.540100,166.026566 199.067749,165.973206 
	C198.595413,165.919861 198.133194,165.986176 198.133194,165.986176 
	C198.133194,165.986176 198.116135,165.858673 198.114746,165.532730 
	C198.179764,164.296173 198.246170,163.385559 198.340302,162.094513 
	C199.480484,162.964996 200.235153,163.541168 200.989822,164.117325 
	C202.435776,164.392624 204.000656,165.144836 205.297363,164.821533 
	C206.891144,164.424164 208.842453,163.435104 209.534607,162.120270 
	C210.042618,161.155273 209.182159,158.847885 208.202972,157.863434 
	C206.617004,156.268921 204.496048,155.155960 202.489609,154.039932 
	C196.954987,150.961395 196.588074,145.946472 202.073120,141.919067 
	C202.658981,142.335083 202.846024,142.693115 203.033066,143.051132 
z"/>
<path fill="#675342" opacity="1.000000" stroke="none" 
	d="
M164.973312,166.942261 
	C162.148331,167.335449 159.323334,167.728638 157.066132,168.042801 
	C157.066132,158.635544 157.066132,150.137344 157.066132,141.319458 
	C159.047287,141.319458 161.623459,141.319458 163.999557,141.319458 
	C163.999557,148.961884 163.999557,156.507721 164.060562,164.793335 
	C164.405487,166.002853 164.689392,166.472549 164.973312,166.942261 
z"/>
<path fill="#594230" opacity="1.000000" stroke="none" 
	d="
M50.053185,165.089035 
	C60.344467,160.165756 60.690105,151.970779 51.004173,142.541290 
	C54.675766,140.356400 59.625549,142.763031 62.437870,148.100449 
	C66.135338,155.117752 63.246986,161.638687 53.920029,165.844559 
	C52.162014,165.924179 51.085255,165.952164 50.020489,165.757385 
	C50.032482,165.534653 50.053185,165.089035 50.053185,165.089035 
z"/>
<path fill="#604A39" opacity="1.000000" stroke="none" 
	d="
M117.039047,145.974945 
	C117.039047,145.974945 117.091248,145.747818 117.198212,145.158447 
	C116.681831,144.029907 116.058479,143.490723 115.435127,142.951538 
	C115.435127,142.951538 115.453217,143.042313 115.689629,142.721664 
	C119.104218,140.180450 121.733101,140.392975 123.047668,142.976761 
	C123.062065,149.904510 123.218620,156.837814 122.947433,163.754364 
	C122.903526,164.874374 121.096107,166.606934 119.865700,166.849792 
	C117.642189,167.288666 115.894836,166.273270 117.162888,162.716339 
	C117.286949,156.676407 117.163002,151.325684 117.039047,145.974945 
z"/>
<path fill="#563F2C" opacity="1.000000" stroke="none" 
	d="
M133.962692,164.999908 
	C127.860626,162.282120 128.047455,156.844940 128.262558,151.507751 
	C128.495956,145.716782 132.098846,142.667740 137.548859,141.328308 
	C136.882462,143.016785 135.959290,144.458511 135.036118,145.900253 
	C135.036118,145.900253 134.943893,145.963684 134.716583,146.195526 
	C134.317581,146.948273 134.145874,147.469177 133.974167,147.990097 
	C134.314987,153.813690 132.427765,160.264648 138.568207,164.876831 
	C137.007065,165.206238 135.484879,165.103073 133.962692,164.999908 
z"/>
<path fill="#594230" opacity="1.000000" stroke="none" 
	d="
M38.834713,165.857010 
	C38.834713,157.931137 38.834713,150.005264 38.834713,141.320419 
	C40.731956,141.423401 42.580898,141.523773 44.537140,142.202484 
	C44.722870,150.273621 44.801304,157.766388 44.541256,165.420715 
	C42.413422,165.673828 40.624065,165.765427 38.834713,165.857010 
z"/>
<path fill="#563F2C" opacity="1.000000" stroke="none" 
	d="
M93.919632,165.746338 
	C93.916962,165.523010 93.914291,165.299683 94.147278,164.450928 
	C94.500000,157.649734 94.684647,151.473587 94.649475,145.298706 
	C94.645027,144.517578 93.487335,143.742996 92.863945,142.965393 
	C94.165688,140.451385 98.721001,140.073669 100.555954,142.598709 
	C99.691185,143.559296 98.930710,144.212311 98.933662,144.861893 
	C98.963814,151.502731 99.117989,158.143036 98.968971,165.087036 
	C97.106834,165.509171 95.513237,165.627762 93.919632,165.746338 
z"/>
<path fill="#776557" opacity="1.000000" stroke="none" 
	d="
M81.201462,112.445984 
	C83.851929,116.767151 86.222755,121.157318 88.359413,125.658630 
	C88.528130,126.014069 87.069397,127.774391 86.367455,127.774109 
	C85.057808,127.773575 82.654251,127.045189 82.608543,126.468796 
	C82.157967,120.787537 79.452133,123.535027 75.852989,124.314713 
	C77.522697,120.390915 79.192406,116.467117 81.201462,112.445984 
z"/>
<path fill="#DCD6D1" opacity="1.000000" stroke="none" 
	d="
M161.947983,127.909424 
	C158.127594,127.909424 154.307190,127.909424 150.426727,127.909424 
	C150.426727,122.393646 150.426727,116.958359 150.426727,110.848846 
	C154.046768,112.345322 159.093552,107.895058 161.572418,114.243256 
	C159.728577,113.602837 158.149475,110.867371 156.546936,114.450150 
	C155.199127,113.657440 154.162857,113.095200 152.771210,112.340141 
	C152.771210,117.469933 152.771210,121.803383 152.771210,126.136833 
	C153.362030,126.236107 153.952850,126.335388 154.543671,126.434662 
	C154.788696,124.766602 155.033707,123.098534 155.601715,121.318092 
	C157.932449,123.440285 159.940216,125.674850 161.947983,127.909424 
z"/>
<path fill="#705D4E" opacity="1.000000" stroke="none" 
	d="
M68.970924,165.034409 
	C68.970924,157.444809 68.970924,149.855225 68.970924,140.910355 
	C73.340454,140.910355 78.872398,140.620255 84.323929,141.152954 
	C85.426010,141.260651 86.223923,144.481064 87.403008,146.724945 
	C82.786369,145.384369 79.553322,144.445557 76.320282,143.506729 
	C75.882355,146.021118 75.444427,148.535522 74.832367,151.541351 
	C74.658218,152.032791 74.264114,152.053696 74.058372,151.704056 
	C73.365288,148.350037 72.877945,145.345673 72.390602,142.341293 
	C71.818779,142.374954 71.246956,142.408630 70.675133,142.442291 
	C70.509804,144.436005 70.315704,146.427811 70.184639,148.423767 
	C69.822014,153.946548 69.485695,159.471069 69.098404,165.010895 
	C69.057823,165.026871 68.970924,165.034409 68.970924,165.034409 
z"/>
<path fill="#705D4E" opacity="1.000000" stroke="none" 
	d="
M182.110794,119.138000 
	C182.034637,117.836601 181.682449,116.469765 181.970505,115.254723 
	C182.196899,114.299828 183.133865,112.948044 183.901840,112.842812 
	C184.700882,112.733307 186.073013,113.707443 186.502747,114.557480 
	C188.059921,117.637642 189.550278,120.795555 190.564453,124.079002 
	C190.862183,125.042900 189.497971,126.520126 188.895447,127.762085 
	C187.672897,126.998878 186.105865,126.488091 185.314941,125.408638 
	C184.324661,124.057106 183.971786,122.238518 183.435333,120.301575 
	C183.741699,119.206627 183.956512,118.431648 184.516953,116.409714 
	C183.072922,118.047066 182.591858,118.592529 182.110794,119.138000 
z"/>
<path fill="#6B5747" opacity="1.000000" stroke="none" 
	d="
M156.858490,114.680626 
	C158.149475,110.867371 159.728577,113.602837 161.527588,114.644928 
	C162.683975,118.487076 163.623962,122.157387 164.296936,125.876022 
	C164.391159,126.396683 163.175323,127.154434 162.256958,127.855927 
	C159.940216,125.674850 157.932449,123.440285 155.565125,120.956200 
	C155.780197,119.781364 156.354813,118.856056 157.117386,117.730118 
	C157.192963,116.713470 157.080612,115.897438 156.914215,114.988503 
	C156.860153,114.895592 156.858490,114.680626 156.858490,114.680626 
z"/>
<path fill="#6B5747" opacity="1.000000" stroke="none" 
	d="
M125.781830,112.312912 
	C127.499390,112.453835 128.914078,112.663002 129.661835,112.773567 
	C129.661835,117.817345 129.661835,122.299461 129.661835,127.359604 
	C127.998619,127.359604 126.088722,127.359604 124.001633,127.359604 
	C125.220024,122.474319 128.075500,117.975334 123.723190,113.719177 
	C124.308449,113.273170 124.893707,112.827164 125.781830,112.312912 
z"/>
<path fill="#D8D0CB" opacity="1.000000" stroke="none" 
	d="
M140.978394,113.077141 
	C143.116058,113.077141 145.253738,113.077141 147.118256,113.077141 
	C147.809662,116.567932 148.730927,119.751556 148.928925,122.979546 
	C149.002655,124.181641 147.385010,125.487473 146.661102,126.235291 
	C146.179428,125.132088 145.575302,124.539604 144.975967,123.981812 
	C144.980774,124.016502 145.048889,124.032814 145.014679,123.830261 
	C144.980453,123.627716 144.919266,123.221451 144.786331,122.946938 
	C144.070389,122.123177 143.487396,121.573929 142.685715,121.022141 
	C142.467041,121.019608 142.042023,121.122894 141.913208,120.919327 
	C141.595428,120.453926 141.378357,120.218002 141.038727,119.578247 
	C140.955688,117.124733 140.967041,115.100937 140.978394,113.077141 
z"/>
<path fill="#D8D0CB" opacity="1.000000" stroke="none" 
	d="
M111.065857,113.997101 
	C113.199417,113.416801 115.332970,112.836502 117.467789,112.256149 
	C117.870346,116.364090 118.271645,120.472084 118.198151,124.449104 
	C116.726631,124.130859 115.729919,123.943581 114.580582,123.452591 
	C113.758713,122.602501 113.089470,122.056129 112.420235,121.509766 
	C112.204292,121.864891 111.988350,122.220016 111.772415,122.575142 
	C112.608055,123.032677 113.443703,123.490204 114.350876,124.250748 
	C114.293091,124.716118 114.163773,124.878471 113.690056,125.024048 
	C112.656845,125.013062 111.968033,125.018852 111.140503,124.583298 
	C111.023148,120.760338 111.044502,117.378716 111.065857,113.997101 
z"/>
<path fill="#7B695C" opacity="1.000000" stroke="none" 
	d="
M75.108673,165.021332 
	C78.841400,164.620895 82.574120,164.220428 87.029610,163.742432 
	C88.524071,165.655472 88.747528,167.545700 84.632904,167.687210 
	C79.644699,167.858765 74.647202,167.955109 69.660805,167.820969 
	C68.651611,167.793823 67.673981,166.593491 66.681808,165.934006 
	C67.221344,165.634644 67.760880,165.335281 68.635666,165.035156 
	C68.970924,165.034409 69.057823,165.026871 69.331268,165.289886 
	C71.058441,165.680786 72.512177,165.808701 74.183739,165.821625 
	C74.668495,165.510422 74.904198,165.281998 75.108673,165.021332 
z"/>
<path fill="#675342" opacity="1.000000" stroke="none" 
	d="
M135.365417,145.792511 
	C135.959290,144.458511 136.882462,143.016785 137.905121,141.261200 
	C140.762436,140.743729 143.569702,140.118423 146.266617,140.434509 
	C150.396744,140.918579 151.832581,143.508057 150.063400,148.662796 
	C145.873901,143.200623 141.226669,140.908737 135.365417,145.792511 
z"/>
<path fill="#D0C8C2" opacity="1.000000" stroke="none" 
	d="
M123.483429,142.954773 
	C121.733101,140.392975 119.104218,140.180450 115.735809,142.718597 
	C114.687195,142.452057 113.828819,141.867905 113.189392,141.432770 
	C117.452477,138.630569 121.365158,136.058701 125.277840,133.486816 
	C124.998558,137.177948 128.589035,140.934738 123.483429,142.954773 
z"/>
<path fill="#563F2C" opacity="1.000000" stroke="none" 
	d="
M97.940063,120.928497 
	C96.286629,122.694473 99.191383,128.195435 93.537178,126.736687 
	C93.537178,122.692818 93.575989,118.861435 93.522827,115.031326 
	C93.490173,112.677994 94.039192,111.717972 96.325806,114.298203 
	C96.586067,116.048393 96.683220,117.168411 96.841980,118.577408 
	C97.249084,119.553764 97.594574,120.241127 97.940063,120.928497 
z"/>
<path fill="#604A39" opacity="1.000000" stroke="none" 
	d="
M134.109985,165.265411 
	C135.484879,165.103073 137.007065,165.206238 138.805542,165.128647 
	C142.648361,164.150146 146.214890,163.352417 150.758514,162.336151 
	C150.173721,163.632233 149.924911,165.326263 148.944794,166.146362 
	C145.716751,168.847473 138.181107,168.378754 134.109985,165.265411 
z"/>
<path fill="#D8D0CB" opacity="1.000000" stroke="none" 
	d="
M92.881409,143.435394 
	C93.487335,143.742996 94.645027,144.517578 94.649475,145.298706 
	C94.684647,151.473587 94.500000,157.649734 94.126244,164.116577 
	C93.538483,159.561356 93.167068,154.717270 92.895897,149.867584 
	C92.785110,147.886444 92.891365,145.893158 92.881409,143.435394 
z"/>
<path fill="#604A39" opacity="1.000000" stroke="none" 
	d="
M65.030830,125.058105 
	C63.268238,124.496010 60.519787,124.430931 59.936634,123.274223 
	C58.465282,120.355751 58.253040,117.011726 62.205280,114.237267 
	C62.760933,117.723427 63.240932,120.734955 64.047646,124.140533 
	C64.584785,124.719620 64.803612,124.894127 65.030830,125.058105 
z"/>
<path fill="#543C29" opacity="1.000000" stroke="none" 
	d="
M75.065895,164.563095 
	C74.904198,165.281998 74.668495,165.510422 74.040359,165.445023 
	C73.808502,161.085968 73.937851,156.988510 74.438705,152.952789 
	C76.548531,152.736649 78.286842,152.458771 80.025162,152.180908 
	C81.112587,152.779053 82.200012,153.377197 83.287430,153.975342 
	C83.068443,154.373459 82.849449,154.771591 82.630463,155.169708 
	C75.169746,152.837372 74.798180,153.273788 75.065895,164.563095 
z"/>
<path fill="#D8D0CB" opacity="1.000000" stroke="none" 
	d="
M175.953125,125.475021 
	C177.559982,123.569466 179.154739,122.085190 181.474106,119.926521 
	C182.221039,123.146736 182.729904,125.340576 183.238770,127.534409 
	C182.887741,127.979858 182.536728,128.425308 182.185699,128.870773 
	C180.104156,127.879272 178.022598,126.887779 175.953125,125.475021 
z"/>
<path fill="#4D3521" opacity="1.000000" stroke="none" 
	d="
M140.647614,113.108444 
	C140.967041,115.100937 140.955688,117.124733 140.843323,119.962814 
	C140.817200,122.197456 140.892075,123.617813 140.966949,125.038177 
	C140.966949,125.038177 141.003479,125.004837 140.858612,125.101791 
	C140.628418,125.377014 140.548233,125.557571 140.473221,125.740410 
	C139.798492,125.626785 139.123749,125.513153 138.249756,124.727448 
	C138.014496,121.041428 137.978470,118.027504 137.942474,115.013573 
	C138.733932,114.388962 139.525391,113.764351 140.647614,113.108444 
z"/>
<path fill="#705D4E" opacity="1.000000" stroke="none" 
	d="
M177.739929,146.284576 
	C181.955719,150.369293 181.694366,153.448273 177.192780,154.918671 
	C176.728210,155.070404 176.046768,154.558197 175.244202,154.191833 
	C175.840561,151.524246 176.658691,149.018890 177.739929,146.284576 
z"/>
<path fill="#4D3521" opacity="1.000000" stroke="none" 
	d="
M110.977303,114.014389 
	C111.044502,117.378716 111.023148,120.760338 111.008278,124.463959 
	C111.014763,124.785973 110.695297,124.943596 110.569389,125.100357 
	C110.282906,125.471954 110.130707,125.692566 109.668182,125.927895 
	C108.854858,125.595032 108.360214,125.253227 107.972473,124.471443 
	C108.024979,120.707283 107.970589,117.383095 107.916206,114.058914 
	C108.421059,113.758743 108.925911,113.458572 109.833206,113.266724 
	C110.386185,113.577469 110.565384,113.750137 110.773262,113.893044 
	C110.773262,113.893044 110.888756,114.031670 110.977303,114.014389 
z"/>
<path fill="#B5AAA0" opacity="1.000000" stroke="none" 
	d="
M99.237503,164.783478 
	C99.117989,158.143036 98.963814,151.502731 98.933662,144.861893 
	C98.930710,144.212311 99.691185,143.559296 100.529633,142.850830 
	C100.539505,149.604614 100.117043,156.415451 99.677620,163.499802 
	C102.197731,163.721573 103.796204,163.862228 105.680328,164.296326 
	C105.369362,164.796021 104.772751,165.002274 103.764877,165.159058 
	C101.981590,165.000870 100.609543,164.892181 99.237503,164.783478 
z"/>
<path fill="#D0C8C2" opacity="1.000000" stroke="none" 
	d="
M44.879738,165.259171 
	C44.801304,157.766388 44.722870,150.273621 44.855850,142.403549 
	C45.043652,148.133011 45.188179,154.247086 44.922016,160.343246 
	C44.798027,163.183060 45.911194,164.191650 48.283943,164.646027 
	C47.031990,165.103241 45.955864,165.181198 44.879738,165.259171 
z"/>
<path fill="#776557" opacity="1.000000" stroke="none" 
	d="
M98.968971,165.087036 
	C100.609543,164.892181 101.981590,165.000870 104.046356,165.338562 
	C106.334480,165.721207 107.929878,165.874878 109.525276,166.028534 
	C104.221138,166.046036 98.917007,166.063538 93.766251,165.913696 
	C95.513237,165.627762 97.106834,165.509171 98.968971,165.087036 
z"/>
<path fill="#B5AAA0" opacity="1.000000" stroke="none" 
	d="
M169.004929,114.016800 
	C167.364075,110.291191 170.010498,110.266129 172.802368,110.313896 
	C173.481689,110.698250 173.790375,110.815399 174.099060,110.932549 
	C174.099060,110.932549 174.023743,110.962074 173.896790,111.297874 
	C173.836517,112.410316 173.903214,113.186951 173.969910,113.963593 
	C173.508499,114.241974 173.047104,114.520348 172.305496,114.535072 
	C171.018509,114.186546 170.011719,114.101677 169.004929,114.016800 
M171.403076,111.513176 
	C171.403076,111.513176 171.540787,111.434914 171.403076,111.513176 
z"/>
<path fill="#4D3521" opacity="1.000000" stroke="none" 
	d="
M168.980621,114.001175 
	C170.011719,114.101677 171.018509,114.186546 172.049957,114.626068 
	C172.027542,115.141083 171.980438,115.301453 171.731064,116.051086 
	C171.644043,119.102249 171.759277,121.564148 171.874496,124.026047 
	C171.087830,124.443558 170.301147,124.861076 169.539734,124.785019 
	C169.374664,120.841423 169.184357,117.391418 168.994049,113.941406 
	C168.994049,113.941406 168.956299,113.985542 168.980621,114.001175 
z"/>
<path fill="#DCD6D1" opacity="1.000000" stroke="none" 
	d="
M96.780365,118.288422 
	C96.683220,117.168411 96.586067,116.048393 96.471191,114.579926 
	C97.369690,114.125122 98.285927,114.018776 99.710129,114.229126 
	C100.124428,114.799385 100.030739,115.052940 99.631470,115.187996 
	C98.960815,115.443054 98.595749,115.816620 98.230682,116.190186 
	C98.590225,116.403053 98.949783,116.615921 99.309341,116.828789 
	C99.478233,116.275978 99.647133,115.723167 100.155548,114.941910 
	C101.028214,114.733459 101.561371,114.753471 102.094528,114.773483 
	C102.012413,116.191467 101.930290,117.609451 101.664597,119.035904 
	C99.914146,118.792381 98.347252,118.540398 96.780365,118.288422 
z"/>
<path fill="#705D4E" opacity="1.000000" stroke="none" 
	d="
M44.541256,165.420715 
	C45.955864,165.181198 47.031990,165.103241 48.510231,164.968140 
	C49.102379,164.940033 49.292416,164.969055 49.767822,165.043549 
	C50.053185,165.089035 50.032482,165.534653 49.905766,165.896484 
	C49.610401,166.427628 49.463425,166.614029 49.338120,166.817520 
	C45.746235,166.605621 42.154354,166.393738 38.698593,166.019440 
	C40.624065,165.765427 42.413422,165.673828 44.541256,165.420715 
z"/>
<path fill="#D0C8C2" opacity="1.000000" stroke="none" 
	d="
M117.145859,146.437317 
	C117.163002,151.325684 117.286949,156.676407 117.258865,162.382416 
	C117.155441,157.458359 117.204056,152.179031 117.145859,146.437317 
z"/>
<path fill="#675342" opacity="1.000000" stroke="none" 
	d="
M200.921204,163.762512 
	C200.235153,163.541168 199.480484,162.964996 198.340302,162.094513 
	C198.246170,163.385559 198.179764,164.296173 198.060822,165.497650 
	C197.689316,163.766373 197.370346,161.744217 197.051392,159.722061 
	C197.718979,159.593826 198.386551,159.465576 199.054138,159.337326 
	C199.653625,160.694122 200.253098,162.050919 200.921204,163.762512 
z"/>
<path fill="#543C29" opacity="1.000000" stroke="none" 
	d="
M109.619431,165.863068 
	C107.929878,165.874878 106.334480,165.721207 104.457611,165.388031 
	C104.772751,165.002274 105.369362,164.796021 106.129257,164.315964 
	C107.104973,163.539062 107.917412,163.035965 109.104156,162.478027 
	C109.663689,162.958252 109.848900,163.493332 110.034111,164.028397 
	C109.927269,164.584793 109.820419,165.141190 109.619431,165.863068 
z"/>
<path fill="#988A7F" opacity="1.000000" stroke="none" 
	d="
M107.865578,124.911423 
	C108.360214,125.253227 108.854858,125.595032 109.898071,125.863640 
	C110.761368,125.576248 110.844246,125.293961 110.695297,124.943596 
	C110.695297,124.943596 111.014763,124.785973 111.146988,124.905304 
	C111.968033,125.018852 112.656845,125.013062 113.871490,125.274124 
	C115.158844,125.907875 115.920372,126.274765 116.681908,126.641663 
	C113.575211,126.307686 110.468521,125.973717 107.441307,125.252350 
	C107.520790,124.864952 107.865578,124.911423 107.865578,124.911423 
z"/>
<path fill="#988A7F" opacity="1.000000" stroke="none" 
	d="
M96.841980,118.577408 
	C98.347252,118.540398 99.914146,118.792381 101.665482,119.367393 
	C100.796410,120.141731 99.742889,120.593040 98.314713,120.986427 
	C97.594574,120.241127 97.249084,119.553764 96.841980,118.577408 
z"/>
<path fill="#D0C8C2" opacity="1.000000" stroke="none" 
	d="
M107.972473,124.471443 
	C107.865578,124.911423 107.520790,124.864952 107.346878,124.860458 
	C107.209122,121.431198 107.245285,118.006416 107.598831,114.320282 
	C107.970589,117.383095 108.024979,120.707283 107.972473,124.471443 
z"/>
<path fill="#988A7F" opacity="1.000000" stroke="none" 
	d="
M169.027252,114.400986 
	C169.184357,117.391418 169.374664,120.841423 169.316223,124.598740 
	C169.065140,121.557549 169.062790,118.209053 169.027252,114.400986 
z"/>
<path fill="#776557" opacity="1.000000" stroke="none" 
	d="
M116.797729,126.490005 
	C115.920372,126.274765 115.158844,125.907875 114.215881,125.290909 
	C114.163773,124.878471 114.293091,124.716118 114.412094,124.191803 
	C114.401779,123.829849 114.733208,123.756310 114.733208,123.756310 
	C115.729919,123.943581 116.726631,124.130859 117.854721,124.626335 
	C117.628578,125.402473 117.271065,125.870407 116.797729,126.490005 
z"/>
<path fill="#705D4E" opacity="1.000000" stroke="none" 
	d="
M173.051056,162.050552 
	C173.814621,161.390076 174.578201,160.729584 175.628601,159.964935 
	C175.473877,161.853745 175.032318,163.846710 174.229279,165.619553 
	C173.595566,164.283127 173.323303,163.166840 173.051056,162.050552 
z"/>
<path fill="#B5AAA0" opacity="1.000000" stroke="none" 
	d="
M137.622803,115.265099 
	C137.978470,118.027504 138.014496,121.041428 137.983826,124.503052 
	C137.712463,121.806038 137.507797,118.661331 137.622803,115.265099 
z"/>
<path fill="#988A7F" opacity="1.000000" stroke="none" 
	d="
M64.922806,113.885620 
	C64.565002,113.434517 64.207191,112.983406 63.386578,111.948822 
	C65.449913,112.139481 66.937080,112.276901 68.472595,112.794487 
	C68.279800,113.387619 68.116234,113.649086 67.641975,113.936356 
	C66.476753,113.904305 65.699776,113.894966 64.922806,113.885620 
z"/>
<path fill="#543C29" opacity="1.000000" stroke="none" 
	d="
M173.026001,161.869293 
	C173.323303,163.166840 173.595566,164.283127 173.975891,165.734863 
	C174.083969,166.070328 174.056732,166.049484 173.692932,166.036087 
	C172.475281,165.702225 171.621445,165.381744 170.767578,165.061279 
	C171.168777,164.079193 171.569977,163.097107 172.264511,161.765854 
	C172.557846,161.416687 172.981369,161.322540 172.981369,161.322540 
	C172.981369,161.322540 173.000946,161.688019 173.026001,161.869293 
z"/>
<path fill="#594230" opacity="1.000000" stroke="none" 
	d="
M212.240265,143.038696 
	C212.573441,143.978195 212.720657,144.713745 212.867889,145.449295 
	C212.354065,145.423386 211.840240,145.397476 211.326416,145.371582 
	C211.569061,144.525970 211.811707,143.680359 212.240265,143.038696 
z"/>
<path fill="#604A39" opacity="1.000000" stroke="none" 
	d="
M171.907532,123.579269 
	C171.759277,121.564148 171.644043,119.102249 171.689316,116.298302 
	C171.880081,118.348335 171.910324,120.740410 171.907532,123.579269 
z"/>
<path fill="#D0C8C2" opacity="1.000000" stroke="none" 
	d="
M141.346008,125.040207 
	C140.892075,123.617813 140.817200,122.197456 140.937729,120.392532 
	C141.378357,120.218002 141.595428,120.453926 141.919312,121.292122 
	C143.052475,122.589935 144.050690,123.311371 145.048889,124.032806 
	C145.048889,124.032814 144.980774,124.016502 144.919586,124.247269 
	C144.570816,124.694550 144.283234,124.911072 143.995667,125.127602 
	C143.238800,125.099144 142.481918,125.070686 141.346008,125.040207 
z"/>
<path fill="#594230" opacity="1.000000" stroke="none" 
	d="
M203.235947,143.010590 
	C202.846024,142.693115 202.658981,142.335083 202.388733,141.803543 
	C204.146957,141.653183 205.988403,141.676331 207.509064,141.883423 
	C206.076248,142.362030 204.964218,142.656693 203.852173,142.951355 
	C203.852173,142.951370 203.438828,142.970032 203.235947,143.010590 
z"/>
<path fill="#705D4E" opacity="1.000000" stroke="none" 
	d="
M170.548203,165.159592 
	C171.621445,165.381744 172.475281,165.702225 173.678024,166.031097 
	C172.794220,165.778961 171.561508,165.518433 170.548203,165.159592 
z"/>
<path fill="#988A7F" opacity="1.000000" stroke="none" 
	d="
M79.686951,152.167694 
	C78.286842,152.458771 76.548531,152.736649 74.462311,152.737427 
	C74.114418,152.460327 74.264114,152.053696 74.264114,152.053696 
	C74.264114,152.053696 74.658218,152.032791 74.848892,151.981018 
	C76.475952,152.004303 77.912338,152.079376 79.686951,152.167694 
z"/>
<path fill="#7B695C" opacity="1.000000" stroke="none" 
	d="
M69.066353,123.481834 
	C69.581474,123.817024 70.096588,124.152214 70.611710,124.487411 
	C69.891747,124.787209 69.171783,125.087013 68.449081,125.021576 
	C68.653023,124.264839 68.859688,123.873337 69.066353,123.481834 
z"/>
<path fill="#7B695C" opacity="1.000000" stroke="none" 
	d="
M110.238205,163.840668 
	C109.848900,163.493332 109.663689,162.958252 109.270508,162.231537 
	C109.552956,161.818451 110.043358,161.596985 110.533760,161.375519 
	C110.503265,162.134659 110.472778,162.893799 110.238205,163.840668 
z"/>
<path fill="#705D4E" opacity="1.000000" stroke="none" 
	d="
M144.242126,125.302963 
	C144.283234,124.911072 144.570816,124.694550 144.914764,124.212570 
	C145.575302,124.539604 146.179428,125.132088 146.473450,125.941483 
	C145.605087,125.931694 145.046829,125.705009 144.242126,125.302963 
z"/>
<path fill="#705D4E" opacity="1.000000" stroke="none" 
	d="
M68.030228,113.959061 
	C68.116234,113.649086 68.279800,113.387619 68.707970,113.032242 
	C69.375267,113.471123 69.855530,114.052414 70.335793,114.633705 
	C69.936562,114.751602 69.537338,114.869499 68.860748,114.734177 
	C68.420647,114.284050 68.236259,114.110092 68.030228,113.959061 
z"/>
<path fill="#988A7F" opacity="1.000000" stroke="none" 
	d="
M49.695534,166.842514 
	C49.463425,166.614029 49.610401,166.427628 49.893772,166.119217 
	C51.085255,165.952164 52.162014,165.924179 53.638512,165.962555 
	C52.709816,166.308426 51.381382,166.587967 49.695534,166.842514 
z"/>
<path fill="#D0C8C2" opacity="1.000000" stroke="none" 
	d="
M68.709900,123.687302 
	C68.859688,123.873337 68.653023,124.264839 68.207733,124.887863 
	C67.234245,125.092278 66.499374,125.065163 65.397675,125.048080 
	C64.803612,124.894127 64.584785,124.719620 64.325073,124.331100 
	C65.635017,124.049316 66.994232,123.971039 68.709900,123.687302 
z"/>
<path fill="#D0C8C2" opacity="1.000000" stroke="none" 
	d="
M67.641975,113.936356 
	C68.236259,114.110092 68.420647,114.284050 68.640083,114.662750 
	C67.343132,114.697105 65.989502,114.549667 64.779335,114.143929 
	C65.699776,113.894966 66.476753,113.904305 67.641975,113.936356 
z"/>
<path fill="#DCD6D1" opacity="1.000000" stroke="none" 
	d="
M182.166489,119.363541 
	C182.591858,118.592529 183.072922,118.047066 184.516953,116.409714 
	C183.956512,118.431648 183.741699,119.206627 183.251724,120.048775 
	C182.677933,120.007874 182.426468,119.832253 182.166489,119.363541 
z"/>
<path fill="#604A39" opacity="1.000000" stroke="none" 
	d="
M99.937057,115.306503 
	C100.030739,115.052940 100.124428,114.799385 100.054504,114.173309 
	C100.400314,113.578560 100.909729,113.356316 101.691833,113.467728 
	C101.971367,114.048073 101.978218,114.294762 101.985062,114.541458 
	C101.985062,114.541458 102.021317,114.666382 102.057922,114.719933 
	C101.561371,114.753471 101.028214,114.733459 100.176865,114.983887 
	C99.858673,115.254318 99.937057,115.306503 99.937057,115.306503 
z"/>
<path fill="#B5AAA0" opacity="1.000000" stroke="none" 
	d="
M204.210815,142.966339 
	C204.964218,142.656693 206.076248,142.362030 207.559082,142.143387 
	C206.809753,142.473373 205.689606,142.727341 204.210815,142.966339 
z"/>
<path fill="#705D4E" opacity="1.000000" stroke="none" 
	d="
M178.807892,143.273712 
	C178.825897,143.847092 178.644119,144.667145 178.249969,145.723267 
	C178.227753,145.146347 178.417938,144.333359 178.807892,143.273712 
z"/>
<path fill="#DCD6D1" opacity="1.000000" stroke="none" 
	d="
M174.320023,113.907288 
	C173.903214,113.186951 173.836517,112.410316 173.937378,111.278442 
	C174.293335,111.899139 174.481735,112.875061 174.320023,113.907288 
z"/>
<path fill="#B5AAA0" opacity="1.000000" stroke="none" 
	d="
M165.263428,166.798584 
	C164.689392,166.472549 164.405487,166.002853 164.072968,165.261108 
	C164.534119,165.544357 165.043839,166.099625 165.263428,166.798584 
z"/>
<path fill="#D0C8C2" opacity="1.000000" stroke="none" 
	d="
M115.643250,143.277679 
	C116.058479,143.490723 116.681831,144.029907 117.179840,145.043365 
	C116.653465,144.879700 116.252419,144.241760 115.643250,143.277679 
z"/>
<path fill="#675342" opacity="1.000000" stroke="none" 
	d="
M200.233276,166.285187 
	C200.535294,166.300232 201.054184,166.483917 201.782745,166.851913 
	C201.478317,166.842087 200.964233,166.647964 200.233276,166.285187 
z"/>
<path fill="#705D4E" opacity="1.000000" stroke="none" 
	d="
M173.002472,160.881348 
	C172.981369,161.322540 172.557846,161.416687 172.343536,161.456848 
	C172.276764,160.769211 172.424301,160.041382 172.772079,158.991959 
	C172.989395,159.260284 173.006470,159.850235 173.002472,160.881348 
z"/>
<path fill="#705D4E" opacity="1.000000" stroke="none" 
	d="
M179.827240,141.111267 
	C179.843750,141.455688 179.661011,142.021545 179.254547,142.786224 
	C179.229858,142.434265 179.428925,141.883484 179.827240,141.111267 
z"/>
<path fill="#705D4E" opacity="1.000000" stroke="none" 
	d="
M174.799927,154.238739 
	C174.839737,154.589417 174.670288,155.158203 174.307236,155.959991 
	C174.272644,155.614288 174.431656,155.035553 174.799927,154.238739 
z"/>
<path fill="#675342" opacity="1.000000" stroke="none" 
	d="
M134.149689,147.781616 
	C134.145874,147.469177 134.317581,146.948273 134.707413,146.250732 
	C134.725418,146.573776 134.525314,147.073456 134.149689,147.781616 
z"/>
<path fill="#675342" opacity="1.000000" stroke="none" 
	d="
M198.236374,166.070999 
	C198.133194,165.986176 198.595413,165.919861 198.829819,165.927139 
	C199.064224,165.934418 198.730881,166.160858 198.730881,166.160858 
	C198.730881,166.160858 198.339554,166.155823 198.236374,166.070999 
z"/>
<path fill="#DCD6D1" opacity="1.000000" stroke="none" 
	d="
M174.035873,110.663925 
	C173.790375,110.815399 173.481689,110.698250 173.092316,110.326721 
	C173.331985,110.179993 173.652344,110.287643 174.035873,110.663925 
z"/>
<path fill="#705D4E" opacity="1.000000" stroke="none" 
	d="
M173.822327,157.054993 
	C173.867004,157.197922 173.714447,157.552917 173.347870,158.110291 
	C173.297577,157.964127 173.461349,157.615585 173.822327,157.054993 
z"/>
<path fill="#988A7F" opacity="1.000000" stroke="none" 
	d="
M102.203918,114.396881 
	C101.978218,114.294762 101.971367,114.048073 101.968132,113.431763 
	C102.122086,113.458862 102.272430,113.855576 102.203918,114.396881 
z"/>
<path fill="#604A39" opacity="1.000000" stroke="none" 
	d="
M110.681793,113.727203 
	C110.565384,113.750137 110.386185,113.577469 110.127686,113.222504 
	C110.246185,113.191650 110.436394,113.355453 110.681793,113.727203 
z"/>
<path fill="#7B695C" opacity="1.000000" stroke="none" 
	d="
M140.542053,125.614677 
	C140.548233,125.557571 140.628418,125.377014 140.834381,125.106308 
	C140.848007,125.177795 140.733292,125.336159 140.542053,125.614677 
z"/>
<path fill="#47704C" opacity="1.000000" stroke="none" 
	d="
M175.989746,159.005066 
	C175.981247,159.010681 175.954132,158.906296 175.981781,158.944519 
	C176.009415,158.982758 175.998245,158.999466 175.989746,159.005066 
z"/>
<path fill="#594230" opacity="1.000000" stroke="none" 
	d="
M156.929443,117.930740 
	C156.354813,118.856056 155.780197,119.781364 155.242157,121.068573 
	C155.033707,123.098534 154.788696,124.766602 154.543671,126.434662 
	C153.952850,126.335388 153.362030,126.236107 152.771210,126.136833 
	C152.771210,121.803383 152.771210,117.469933 152.771210,112.340141 
	C154.162857,113.095200 155.199127,113.657440 156.546936,114.450150 
	C156.858490,114.680626 156.860153,114.895592 156.934479,115.344986 
	C156.982361,116.506493 156.955902,117.218620 156.929443,117.930740 
z"/>
<path fill="#4D3521" opacity="1.000000" stroke="none" 
	d="
M74.058372,151.704056 
	C74.264114,152.053696 74.114418,152.460327 74.090805,152.675690 
	C73.937851,156.988510 73.808502,161.085968 73.822525,165.560013 
	C72.512177,165.808701 71.058441,165.680786 69.371841,165.273895 
	C69.485695,159.471069 69.822014,153.946548 70.184639,148.423767 
	C70.315704,146.427811 70.509804,144.436005 70.675133,142.442291 
	C71.246956,142.408630 71.818779,142.374954 72.390602,142.341293 
	C72.877945,145.345673 73.365288,148.350037 74.058372,151.704056 
z"/>
<path fill="#47704C" opacity="1.000000" stroke="none" 
	d="
M157.117386,117.730118 
	C156.955902,117.218620 156.982361,116.506493 156.988541,115.437897 
	C157.080612,115.897438 157.192963,116.713470 157.117386,117.730118 
z"/>
<path fill="#47704C" opacity="1.000000" stroke="none" 
	d="
M145.014679,123.830261 
	C144.050690,123.311371 143.052475,122.589935 142.048141,121.495697 
	C142.042023,121.122894 142.467041,121.019608 142.686935,121.383835 
	C143.577637,122.239189 144.248459,122.730324 144.919266,123.221451 
	C144.919266,123.221451 144.980453,123.627716 145.014679,123.830261 
z"/>
<path fill="#DCD6D1" opacity="1.000000" stroke="none" 
	d="
M144.786331,122.946938 
	C144.248459,122.730324 143.577637,122.239189 142.905609,121.386368 
	C143.487396,121.573929 144.070389,122.123177 144.786331,122.946938 
z"/>
<path fill="#47704C" opacity="1.000000" stroke="none" 
	d="
M114.580582,123.452591 
	C114.733208,123.756310 114.401779,123.829849 114.340561,123.888794 
	C113.443703,123.490204 112.608055,123.032677 111.772415,122.575142 
	C111.988350,122.220016 112.204292,121.864891 112.420235,121.509766 
	C113.089470,122.056129 113.758713,122.602501 114.580582,123.452591 
z"/>
<path fill="#604A39" opacity="1.000000" stroke="none" 
	d="
M110.569389,125.100357 
	C110.844246,125.293961 110.761368,125.576248 110.216766,125.854698 
	C110.130707,125.692566 110.282906,125.471954 110.569389,125.100357 
z"/>
<path fill="#DCD6D1" opacity="1.000000" stroke="none" 
	d="
M171.471924,111.474045 
	C171.540787,111.434914 171.403076,111.513176 171.471924,111.474045 
z"/>
<path fill="#47704C" opacity="1.000000" stroke="none" 
	d="
M99.837357,115.212341 
	C99.647133,115.723167 99.478233,116.275978 99.309341,116.828789 
	C98.949783,116.615921 98.590225,116.403053 98.230682,116.190186 
	C98.595749,115.816620 98.960815,115.443054 99.631470,115.187996 
	C99.937057,115.306503 99.858673,115.254318 99.837357,115.212341 
z"/>
</svg>