<svg version="1.1" id="Layer_1" xmlns="http://www.w3.org/2000/svg" xmlns:xlink="http://www.w3.org/1999/xlink" x="0px" y="0px"
	 width="100%" viewBox="0 0 1024 1024" enable-background="new 0 0 1024 1024" xml:space="preserve">
<path fill="#000000" opacity="1.000000" stroke="none" 
	d="
M253.269226,609.098511 
	C261.953094,644.417908 244.866531,671.123169 210.412262,678.365417 
	C198.053741,680.963257 185.569351,680.252319 173.106552,680.341797 
	C165.443802,680.396790 157.779678,680.400146 150.117615,680.308289 
	C148.472153,680.288574 146.182129,680.992065 145.865540,678.160156 
	C145.587906,675.676880 147.671661,675.780396 149.141251,675.259583 
	C155.921783,672.857056 157.633835,670.486816 157.641968,663.027527 
	C157.668304,638.871826 157.669098,614.716064 157.640579,590.560364 
	C157.631470,582.849915 156.379913,581.223450 149.005875,578.697205 
	C147.668411,578.239075 145.840332,578.294250 145.886948,576.148010 
	C145.924774,574.406555 147.125305,573.859558 148.577194,573.889160 
	C171.651718,574.359619 194.932922,571.406067 217.714478,576.897217 
	C235.014206,581.066956 247.544434,591.204651 253.269226,609.098511 
M220.335419,591.158203 
	C209.425171,581.434692 196.203705,579.116699 182.245102,579.570801 
	C178.983398,579.676880 176.281586,581.102173 176.298203,585.425171 
	C176.403107,612.724854 176.378876,640.025146 176.320877,667.325073 
	C176.311859,671.569763 178.512375,673.435974 182.397156,673.597717 
	C186.218765,673.756897 190.058533,673.784912 193.878998,673.614990 
	C213.556244,672.740234 228.515198,660.194702 232.532181,641.458618 
	C233.872879,635.205383 233.903900,628.906982 233.644211,622.595764 
	C233.156525,610.743713 229.723145,600.055969 220.335419,591.158203 
z"/>
<path fill="#000000" opacity="1.000000" stroke="none" 
	d="
M304.673737,580.330017 
	C301.746185,579.927246 300.240387,580.308228 300.287262,583.536743 
	C300.451752,594.865173 300.376923,606.197510 300.323761,617.528076 
	C300.311493,620.131714 301.148315,621.551514 304.009796,621.661011 
	C310.531586,621.910461 316.966156,621.252563 323.374115,620.181152 
	C327.495972,619.491943 330.544281,617.382751 331.513000,613.142517 
	C332.019287,610.926331 333.097595,609.967346 335.316071,610.237793 
	C337.719360,610.530884 337.351410,612.332397 337.499115,614.002136 
	C338.249664,622.487488 337.831238,630.987488 337.913422,639.480530 
	C337.933502,641.555603 337.803070,643.626343 334.938660,643.730652 
	C332.496002,643.819641 332.090485,642.187805 331.616241,640.230530 
	C329.728180,632.437622 326.375702,629.753113 318.394989,629.280090 
	C313.743317,629.004517 309.092529,628.711365 304.443604,628.392944 
	C301.421326,628.185974 300.300842,629.620239 300.319092,632.562805 
	C300.390442,644.059753 300.392944,655.557678 300.320892,667.054565 
	C300.295624,671.086121 302.712250,672.943237 306.126526,673.271118 
	C321.936462,674.789185 339.765503,673.487793 349.331146,654.834717 
	C351.106079,651.373474 353.263336,652.071350 356.304291,653.300659 
	C356.695984,659.366882 354.365417,665.175476 352.938171,670.997253 
	C350.224396,682.066589 352.828461,680.256104 341.178314,680.313965 
	C319.683594,680.420593 298.188019,680.350769 276.692780,680.347656 
	C275.194000,680.347473 273.693512,680.325378 272.196960,680.250427 
	C270.929779,680.186829 269.942139,679.746216 269.856049,678.235229 
	C269.779877,676.897705 270.207916,675.935547 271.625671,675.690857 
	C280.976837,674.076660 281.827179,667.465576 281.741516,659.617554 
	C281.492371,636.791992 281.661865,613.961975 281.646667,591.133667 
	C281.641113,582.800171 280.840820,581.739502 272.945251,578.954285 
	C271.428833,578.419373 269.485870,578.134460 269.904114,575.769226 
	C270.324982,573.388977 272.330811,573.822021 273.879395,573.818726 
	C296.374176,573.771240 318.869263,573.821472 341.363678,573.718262 
	C344.392853,573.704407 345.619415,575.181946 345.985962,577.760681 
	C346.963501,584.638855 347.844391,591.530701 348.769165,598.458008 
	C345.703796,600.065002 343.579590,600.162292 342.155304,596.724243 
	C337.259735,584.906799 327.918213,580.194824 315.589569,580.360046 
	C312.091278,580.406921 308.591522,580.345764 304.673737,580.330017 
z"/>
<path fill="#000000" opacity="1.000000" stroke="none" 
	d="
M716.490601,619.559692 
	C721.792908,605.674072 726.974731,592.159912 732.135132,578.637573 
	C733.396851,575.331299 734.398193,572.506226 739.188171,572.456970 
	C744.234192,572.405151 745.194702,575.480957 746.549988,578.906616 
	C757.811523,607.373291 769.127869,635.818298 780.347900,664.301208 
	C782.379089,669.457642 784.828918,673.991394 790.821411,675.315491 
	C792.445190,675.674194 793.491333,676.625305 793.135559,678.523254 
	C792.794617,680.341492 791.335327,680.299500 790.039246,680.303162 
	C777.712463,680.337952 765.385498,680.338623 753.058594,680.317688 
	C751.573975,680.315186 750.004944,680.379028 749.703918,678.241516 
	C749.412170,676.169250 750.752136,675.679688 752.270813,675.275635 
	C753.395447,674.976501 754.544373,674.758484 755.652893,674.410217 
	C760.367798,672.929016 761.905273,670.385925 760.308777,665.683716 
	C758.224365,659.544128 755.728943,653.544678 753.446716,647.471252 
	C752.649475,645.349548 751.289978,644.341675 748.930603,644.358154 
	C739.102905,644.426697 729.273926,644.438782 719.446655,644.339905 
	C716.802124,644.313354 715.540466,645.551880 714.766235,647.877930 
	C713.242554,652.455505 711.446960,656.946289 710.030273,661.554871 
	C707.705872,669.115967 709.331421,672.140991 716.737671,674.933594 
	C718.351318,675.541992 720.608582,675.779297 720.045654,678.436646 
	C719.556702,680.744629 717.571716,680.326599 716.000610,680.335449 
	C707.505310,680.383362 699.009277,680.375977 690.514038,680.322205 
	C689.095398,680.313232 687.351990,680.589478 686.916809,678.518616 
	C686.462463,676.356079 687.861389,675.315430 689.578613,675.011902 
	C694.733826,674.100647 696.931885,670.508728 698.618530,666.052673 
	C704.450012,650.646362 710.435364,635.298340 716.490601,619.559692 
M723.890320,624.250000 
	C722.802612,627.776917 720.548096,630.988647 720.689575,635.322083 
	C729.854370,635.897278 738.703003,635.722534 748.641968,635.456787 
	C743.724426,622.536255 739.129150,610.462585 734.123596,597.310852 
	C730.503906,606.846802 727.338196,615.186768 723.890320,624.250000 
z"/>
<path fill="#000000" opacity="1.000000" stroke="none" 
	d="
M812.746338,583.871338 
	C818.923157,576.231018 826.828735,573.048279 836.083984,572.610291 
	C846.151917,572.133789 855.980225,572.992004 865.495361,576.700867 
	C868.949585,578.047302 870.627808,579.981628 870.355164,583.733765 
	C869.897949,590.028442 872.170959,596.250244 871.032349,602.855591 
	C867.540466,604.052551 865.565247,603.780029 864.216370,599.456299 
	C860.201233,586.585388 850.164062,578.928162 838.814514,579.284607 
	C832.769287,579.474487 828.269836,582.213440 825.747070,587.726501 
	C823.172668,593.352539 823.755127,598.724243 827.734192,603.607422 
	C832.060364,608.916687 837.984619,612.031250 843.814148,615.243286 
	C850.814941,619.100647 857.941650,622.765686 864.235413,627.743042 
	C874.244019,635.658203 877.496460,646.227966 875.164246,658.429016 
	C872.997803,669.762329 865.874207,677.129944 854.835205,680.185791 
	C839.754028,684.360535 824.915039,683.358948 810.514832,676.944519 
	C807.353943,675.536438 805.541016,673.805664 805.482544,669.896423 
	C805.400940,664.443359 804.427246,659.001404 803.792542,653.559692 
	C803.473816,650.826843 803.750732,648.700623 807.114990,648.004639 
	C810.563110,647.291138 810.499939,650.007507 811.136169,651.813843 
	C816.387634,666.724365 826.641235,674.813110 840.326538,674.697327 
	C848.512939,674.628052 854.690186,670.557922 857.032776,663.689758 
	C859.836792,655.468689 857.633789,646.862061 851.324585,641.914429 
	C846.983948,638.510620 842.059631,636.035461 837.250732,633.377197 
	C831.863342,630.399109 826.354797,627.584412 821.229492,624.198303 
	C806.884644,614.721191 803.540222,598.851501 812.746338,583.871338 
z"/>
<path fill="#000000" opacity="1.000000" stroke="none" 
	d="
M528.930969,598.045166 
	C540.297546,581.683289 556.068481,574.052734 575.196228,572.659180 
	C585.949463,571.875793 596.396484,573.302734 606.599060,576.938354 
	C610.064209,578.173157 611.748474,580.250366 612.138367,583.703186 
	C612.827209,589.804443 613.565063,595.900635 614.185730,602.008728 
	C614.348572,603.611816 614.650085,605.536926 612.420898,606.115173 
	C610.185852,606.694946 608.996643,605.567749 608.487183,603.429443 
	C608.218384,602.301331 607.761475,601.216125 607.363770,600.120911 
	C603.302368,588.935486 595.894043,581.184143 583.837646,579.542358 
	C570.216553,577.687439 558.725525,582.232056 550.876953,593.845337 
	C542.635315,606.040222 541.514343,619.948425 542.745911,634.110840 
	C543.424561,641.915039 545.173340,649.530823 549.312805,656.409912 
	C564.019958,680.850464 593.802673,680.904846 608.453857,656.477295 
	C609.649536,654.483704 610.727356,652.419250 611.901978,650.312256 
	C615.777161,649.896729 617.058838,651.599854 616.289978,655.236633 
	C615.190674,660.436218 614.211243,665.662109 613.042480,670.845581 
	C612.644714,672.609863 611.841919,674.133911 610.085999,675.239014 
	C590.279419,687.704651 553.633179,684.038818 536.579224,667.519714 
	C523.524048,654.874023 519.847839,638.825134 521.158508,621.334595 
	C521.774231,613.118408 524.191589,605.345337 528.930969,598.045166 
z"/>
<path fill="#000000" opacity="1.000000" stroke="none" 
	d="
M531.920837,299.972992 
	C550.505981,316.356232 554.808838,336.934418 550.746399,359.963257 
	C548.412842,373.191284 542.354431,384.502136 531.363159,392.590790 
	C519.567383,401.271545 513.356323,398.351379 510.623322,383.876343 
	C508.657715,373.465759 510.648773,363.745636 513.978882,354.086670 
	C518.007690,342.400909 520.856812,330.508514 520.627808,318.059296 
	C520.483704,310.225647 518.771851,302.667542 515.607056,294.745361 
	C522.135437,294.001648 526.946106,296.660004 531.920837,299.972992 
z"/>
<path fill="#000000" opacity="1.000000" stroke="none" 
	d="
M472.671753,344.052429 
	C473.374603,326.427094 478.343079,311.075439 492.428070,300.188782 
	C504.766846,290.651794 509.871094,292.683655 513.436279,307.727203 
	C515.783752,317.632812 513.804871,327.184479 511.024933,336.641602 
	C507.131226,349.887421 503.547577,363.130859 504.233246,377.184052 
	C504.578064,384.251160 506.747589,390.799103 509.071045,397.978638 
	C501.812164,397.798737 496.179749,394.876038 491.247772,390.638519 
	C481.220459,382.023041 476.080963,370.687073 473.681274,357.910400 
	C472.849182,353.480103 472.464569,349.034546 472.671753,344.052429 
z"/>
<path fill="#000000" opacity="1.000000" stroke="none" 
	d="
M452.534302,652.971313 
	C451.009094,660.835693 449.468384,668.313049 448.083923,675.819275 
	C447.474976,679.120911 445.959045,680.454956 442.379639,680.429443 
	C420.396179,680.272949 398.410889,680.374939 376.426422,680.320618 
	C374.774811,680.316528 372.481354,681.101807 371.919189,678.459473 
	C371.327209,675.676758 373.703400,675.702454 375.341797,675.248474 
	C383.110291,673.095520 384.464142,670.848328 384.313019,660.816650 
	C384.016907,641.163330 385.202362,621.530823 384.569641,601.889832 
	C384.424957,597.399353 384.106476,592.914795 383.906830,588.425720 
	C383.676575,583.248962 381.253784,580.091614 375.978882,579.088318 
	C374.247314,578.758972 371.503937,578.729736 371.967682,575.755981 
	C372.376526,573.134460 374.760559,573.838318 376.431152,573.825500 
	C387.422821,573.741455 398.415649,573.719971 409.407257,573.795288 
	C411.190674,573.807495 413.812164,572.935974 414.085480,576.026306 
	C414.322021,578.700623 411.831268,578.764648 410.245331,578.991455 
	C404.303467,579.841370 402.503174,584.122131 402.467194,589.000977 
	C402.276886,614.814697 402.320953,640.630676 402.421692,666.445435 
	C402.441101,671.418213 404.750854,673.220947 411.365540,673.302673 
	C415.997833,673.359924 420.716919,673.066101 425.261566,672.209412 
	C435.914062,670.201599 442.173767,662.986328 446.271088,653.447083 
	C448.152527,649.066833 449.313049,648.952698 452.534302,652.971313 
z"/>
<path fill="#000000" opacity="1.000000" stroke="none" 
	d="
M472.865265,579.959595 
	C470.273376,578.559448 465.655273,579.829956 466.138519,575.918335 
	C466.625702,571.974976 470.817841,573.899475 473.283356,573.841858 
	C483.583344,573.600952 493.892548,573.714294 504.197784,573.784058 
	C505.696686,573.794189 507.813751,572.987976 508.316406,575.397339 
	C508.837708,577.896240 506.873779,578.385742 505.074921,578.936646 
	C498.246277,581.027771 496.446198,583.049255 496.411285,590.253723 
	C496.291809,614.908508 496.303741,639.564575 496.406647,664.219543 
	C496.434845,670.980042 498.569946,673.436401 504.933105,675.302612 
	C506.558868,675.779419 508.868195,675.464844 508.428833,678.378540 
	C508.044525,680.927368 506.082855,680.321960 504.552032,680.327881 
	C493.057465,680.372681 481.562592,680.368774 470.067963,680.332336 
	C468.462677,680.327271 466.485657,680.613342 466.061157,678.342957 
	C465.601562,675.884827 467.644409,675.926025 469.197845,675.428345 
	C475.985809,673.254028 477.693420,671.399170 477.726532,664.402466 
	C477.845337,639.249451 477.751801,614.095520 477.736237,588.941895 
	C477.733948,585.234314 476.758972,582.021301 472.865265,579.959595 
z"/>
<path fill="#000000" opacity="1.000000" stroke="none" 
	d="
M635.538513,675.609863 
	C643.232422,673.082581 644.907410,671.285400 644.953613,663.736023 
	C645.103455,639.239014 645.118469,614.739929 644.967346,590.243042 
	C644.920471,582.642273 643.364990,581.091003 636.243225,579.186646 
	C634.606934,578.749207 632.832703,578.325500 632.964783,576.120117 
	C633.105469,573.771118 635.000061,573.788940 636.669312,573.785522 
	C648.335144,573.761475 660.000977,573.761902 671.666687,573.799316 
	C673.138489,573.804077 674.786987,573.774292 675.110107,575.838623 
	C675.435364,577.916565 673.847107,578.261353 672.446899,578.795044 
	C664.481018,581.831482 663.371155,583.372925 663.361267,591.971130 
	C663.333984,615.803284 663.332031,639.635376 663.362671,663.467529 
	C663.372192,670.863098 665.028137,673.100220 672.113831,675.407104 
	C673.734375,675.934692 675.533508,676.045410 675.108826,678.450500 
	C674.737793,680.551514 673.005005,680.320557 671.574463,680.324890 
	C659.908691,680.360229 648.242615,680.356689 636.576843,680.314636 
	C635.140686,680.309448 633.392151,680.517822 633.026611,678.443420 
	C632.742188,676.828979 633.550842,675.926819 635.538513,675.609863 
z"/>
<path fill="#000000" opacity="1.000000" stroke="none" 
	d="
M646.416748,503.460083 
	C644.383667,499.982208 642.478394,496.849304 640.743591,493.624664 
	C639.579468,491.460724 637.781982,491.094360 635.673401,491.474213 
	C633.182922,491.922791 633.963623,493.907684 633.963562,495.470520 
	C633.963501,498.302490 634.071411,501.135406 634.025879,503.966187 
	C633.971252,507.362335 634.381897,510.322693 638.540039,511.106537 
	C639.824036,511.348541 641.225708,512.056091 640.763184,513.817993 
	C640.398743,515.206665 639.086182,515.294250 637.906311,515.297302 
	C631.408813,515.314331 624.911194,515.319275 618.413879,515.281616 
	C617.106079,515.274048 615.574951,515.341431 615.379272,513.484436 
	C615.228333,512.051880 616.293335,511.272797 617.439514,511.043030 
	C621.621399,510.204651 621.824341,507.144806 621.810120,503.797699 
	C621.761353,492.301971 621.723206,480.805756 621.787292,469.310303 
	C621.807251,465.723907 621.471191,462.604919 617.144287,461.718353 
	C615.952332,461.474121 614.916382,460.683716 615.297485,459.235321 
	C615.665222,457.838074 616.952820,457.722198 618.137695,457.746307 
	C628.276367,457.952850 638.470215,456.907898 648.536072,458.804321 
	C659.482361,460.866577 664.992371,469.081604 662.244751,478.997528 
	C660.820557,484.137482 657.106384,486.982910 651.262756,488.884460 
	C657.200012,496.934143 660.114868,506.478302 669.394226,511.188721 
	C670.512817,511.756531 672.247559,511.882477 671.903137,513.735413 
	C671.574707,515.502258 669.963013,515.201965 668.684204,515.356384 
	C658.662354,516.566895 651.800903,511.764313 646.416748,503.460083 
M646.877319,465.586914 
	C645.242615,464.061707 643.213562,463.287079 641.116150,462.745605 
	C635.737671,461.356964 634.148438,462.581055 634.087280,468.166809 
	C634.034424,472.990936 634.165466,477.817902 634.061401,482.640259 
	C633.995605,485.691833 635.379211,486.843781 638.305298,486.634918 
	C642.656494,486.324341 646.515686,485.075531 648.787048,481.018921 
	C651.723694,475.774109 650.875000,470.806732 646.877319,465.586914 
z"/>
<path fill="#000000" opacity="1.000000" stroke="none" 
	d="
M466.537262,508.739441 
	C470.293640,506.975708 472.883026,504.446228 474.984528,501.360107 
	C475.788208,500.179901 476.858337,499.359924 478.356476,499.925018 
	C480.118744,500.589661 479.572876,502.152191 479.326172,503.361755 
	C478.695465,506.454041 477.882019,509.509247 477.133240,512.577209 
	C476.616882,514.692871 475.279144,515.416687 473.104309,515.400146 
	C460.938385,515.307739 448.771484,515.350403 436.605255,515.283997 
	C435.210876,515.276367 433.330109,515.653320 432.980225,513.565674 
	C432.647034,511.577118 434.250854,511.092438 435.738647,510.689728 
	C438.929291,509.826050 439.648987,507.434326 439.645782,504.535461 
	C439.632599,492.535583 439.615631,480.535614 439.651733,468.535858 
	C439.661102,465.429565 438.976837,462.952820 435.500000,462.067291 
	C434.260986,461.751740 432.772827,461.233582 433.001953,459.466980 
	C433.241852,457.616974 434.846008,457.766693 436.116913,457.762970 
	C447.783203,457.728729 459.449829,457.783386 471.115875,457.721588 
	C473.625214,457.708313 474.772766,458.944214 475.125946,461.203369 
	C475.510834,463.665283 475.895172,466.130646 476.152557,468.607727 
	C476.285828,469.890625 476.535492,471.460510 474.804993,471.934937 
	C473.230957,472.366394 472.378876,471.261505 471.707581,470.017700 
	C468.450867,463.983276 463.101807,462.275085 456.626831,462.282257 
	C452.839935,462.286469 451.031586,463.365021 451.309357,467.410797 
	C451.548492,470.894043 451.540131,474.420471 451.296112,477.903625 
	C451.028778,481.719177 452.602173,483.200989 456.254089,482.517731 
	C459.920593,481.831726 463.841095,482.019897 466.127838,477.837280 
	C467.131622,476.001373 469.794403,476.258820 470.024994,478.776367 
	C470.448730,483.402740 470.217255,488.091858 470.192841,492.754456 
	C470.187103,493.851959 469.564240,494.657623 468.365936,494.722931 
	C466.985443,494.798126 466.196136,493.964325 465.839844,492.748657 
	C465.248901,490.732361 464.232147,489.224915 462.166992,488.351776 
	C454.775757,485.226929 451.347168,487.371796 451.345520,495.248077 
	C451.344849,498.414734 451.556396,501.598236 451.300995,504.744019 
	C450.924652,509.379089 453.615601,510.748444 457.394440,510.526978 
	C460.344818,510.354034 463.252258,509.449127 466.537262,508.739441 
z"/>
<path fill="#000000" opacity="1.000000" stroke="none" 
	d="
M558.371094,515.299805 
	C556.611938,515.115417 555.102417,515.198120 555.029175,513.299438 
	C554.971924,511.814911 556.161377,511.244934 557.252441,510.995575 
	C561.285583,510.073730 561.700195,507.167358 561.678589,503.742706 
	C561.606018,492.258118 561.581726,480.772186 561.688599,469.288147 
	C561.722839,465.610352 561.050781,462.678864 556.979431,461.628052 
	C555.813049,461.327057 554.682739,460.708771 555.094727,459.211456 
	C555.481323,457.806915 556.806763,457.764618 557.961548,457.762512 
	C569.612671,457.741516 581.263855,457.783508 592.914734,457.728424 
	C595.142334,457.717896 596.322449,458.673950 596.699768,460.782745 
	C597.166565,463.391357 597.679565,465.993530 598.061707,468.614655 
	C598.246887,469.884949 598.619873,471.447968 596.867432,471.969025 
	C595.301697,472.434570 594.415588,471.336243 593.738159,470.110077 
	C590.096619,463.518799 584.156616,461.963745 577.193726,462.347046 
	C574.464600,462.497284 573.285156,463.594879 573.339111,466.320129 
	C573.421326,470.479675 573.444336,474.644501 573.327698,478.802429 
	C573.250732,481.545929 574.298218,482.796295 577.119324,482.669922 
	C581.288879,482.483154 585.594055,482.759491 587.842712,478.108276 
	C588.350037,477.058838 589.236145,476.756683 590.321106,476.935211 
	C591.773621,477.174286 592.143616,478.262909 592.153625,479.496613 
	C592.188721,483.822754 592.189514,488.149414 592.166565,492.475647 
	C592.160889,493.537354 591.746887,494.477509 590.634338,494.785248 
	C589.567688,495.080322 588.481262,494.739716 588.124451,493.703217 
	C585.546021,486.213013 579.488464,488.104797 573.431152,487.918488 
	C573.431152,494.637573 573.290283,500.919830 573.496033,507.190735 
	C573.586060,509.935669 576.011047,510.628448 578.246094,510.548035 
	C585.249390,510.296021 591.828979,508.944519 596.144348,502.546356 
	C597.229370,500.937592 598.241272,498.902100 601.279724,500.385529 
	C601.796509,504.941742 600.028503,509.266846 598.553772,513.586121 
	C597.800049,515.793518 595.554932,515.321228 593.781189,515.324768 
	C582.129883,515.347961 570.478394,515.324097 558.371094,515.299805 
z"/>
<path fill="#000000" opacity="1.000000" stroke="none" 
	d="
M311.975830,496.089691 
	C316.572510,484.249298 321.102081,472.796204 325.401276,461.257263 
	C326.417236,458.530426 327.860596,457.138489 330.773102,457.048431 
	C333.768951,456.955750 334.623260,458.908234 335.550903,461.215942 
	C341.262024,475.423584 347.080505,489.588043 352.846283,503.773743 
	C354.049927,506.735107 355.218384,509.675873 358.580231,510.918213 
	C359.784485,511.363251 360.503479,512.255615 360.191254,513.642090 
	C359.862427,515.102295 358.678558,515.282715 357.474823,515.285095 
	C351.310242,515.297302 345.145508,515.295837 338.981018,515.262329 
	C337.767365,515.255676 336.579956,514.973022 336.394806,513.483093 
	C336.211578,512.008118 337.312164,511.318604 338.444000,511.059113 
	C342.371857,510.158539 341.762451,507.772186 340.776184,504.952087 
	C337.710083,496.185181 337.757996,496.168274 328.636871,496.168091 
	C327.637115,496.168091 326.637360,496.170624 325.637604,496.172882 
	C318.588593,496.188812 314.836517,499.839905 314.612457,506.875641 
	C314.533569,509.352997 316.207642,510.321106 318.137695,511.131470 
	C319.351532,511.641052 320.827667,512.074707 320.373810,513.872192 
	C320.005219,515.331848 318.671112,515.290771 317.515869,515.295898 
	C313.350830,515.314575 309.185394,515.296692 305.020386,515.262634 
	C303.794556,515.252686 302.667542,514.924500 302.257385,513.588623 
	C301.992035,512.724487 302.201996,511.759125 303.012604,511.404663 
	C309.581665,508.531891 308.963470,501.469299 311.975830,496.089691 
M331.120911,480.276520 
	C330.019226,477.975159 329.910858,475.146301 327.240173,472.977478 
	C325.166565,478.839691 322.370667,484.013031 321.279541,490.241180 
	C326.129608,490.689392 330.267395,491.102051 334.860565,489.937439 
	C333.549896,486.511475 332.489197,483.738831 331.120911,480.276520 
z"/>
<path fill="#000000" opacity="1.000000" stroke="none" 
	d="
M771.921265,515.328186 
	C767.604431,515.314270 763.771545,515.330322 759.940002,515.266846 
	C758.811768,515.248230 757.477539,515.328918 757.034485,513.896667 
	C756.591125,512.463623 757.529602,511.662018 758.689453,511.265869 
	C762.201599,510.066193 761.951477,507.764130 760.950134,504.877197 
	C757.940918,496.201782 758.003235,496.179962 748.691284,496.157745 
	C747.524841,496.154968 746.358459,496.151154 745.192017,496.156982 
	C738.732361,496.189270 735.009460,500.219147 735.264221,506.727356 
	C735.358093,509.124817 736.756714,510.259674 738.687134,511.151184 
	C739.717285,511.626923 740.989441,512.075745 740.691162,513.606140 
	C740.409973,515.048584 739.193542,515.280518 737.993835,515.288635 
	C733.661987,515.318054 729.329773,515.312683 724.997925,515.281006 
	C723.789185,515.272156 722.623718,514.995483 722.245605,513.618774 
	C721.932495,512.478760 722.528687,511.522491 723.487122,511.169495 
	C728.316467,509.390747 729.023071,504.771790 730.546753,500.847504 
	C735.546509,487.969910 740.370483,475.023865 745.225098,462.090271 
	C746.185059,459.532745 746.998901,457.159515 750.507324,457.093903 
	C754.057739,457.027557 754.875916,459.424713 755.879639,461.958801 
	C761.027405,474.955353 766.147522,487.963623 771.428345,500.906158 
	C773.031128,504.834290 774.112976,509.288269 778.866821,511.000763 
	C779.922302,511.380981 780.231506,512.393738 780.039917,513.487488 
	C779.832581,514.670410 778.959412,515.136841 777.900208,515.194946 
	C776.071777,515.295349 774.237549,515.289246 771.921265,515.328186 
M745.037048,490.634979 
	C748.089600,490.404144 751.256226,491.267120 754.721375,489.746124 
	C752.820068,484.015137 751.051514,478.521606 747.685486,472.718109 
	C745.567505,478.100952 743.844910,482.578278 742.040833,487.022522 
	C741.119385,489.292389 741.612793,490.556732 745.037048,490.634979 
z"/>
<path fill="#000000" opacity="1.000000" stroke="none" 
	d="
M397.058594,482.768829 
	C401.650970,482.854950 405.230499,482.154572 407.811188,478.154327 
	C409.443329,475.624359 411.516754,476.887512 411.756897,479.446320 
	C412.175842,483.909882 412.104980,488.421906 412.167542,492.914612 
	C412.182007,493.952942 411.736542,494.870911 410.510529,495.047058 
	C409.292694,495.222015 408.802124,494.344727 408.209991,493.513092 
	C404.753357,488.658936 400.852570,487.362274 394.960114,488.625610 
	C392.784332,489.092102 392.333527,490.261780 392.344025,492.116516 
	C392.370392,496.779022 392.371124,501.441803 392.357147,506.104401 
	C392.348785,508.897614 393.851868,510.280487 396.443146,510.957977 
	C397.835266,511.321960 399.610962,511.855072 399.192963,513.862305 
	C398.754181,515.969543 396.831573,515.299988 395.464264,515.312927 
	C389.470032,515.369690 383.474701,515.334961 377.480042,515.292542 
	C376.162842,515.283203 374.596161,515.338989 374.269104,513.635376 
	C373.940491,511.923920 375.374847,511.252472 376.652222,510.955750 
	C380.224426,510.126007 380.731018,507.592468 380.712463,504.504791 
	C380.655426,495.013092 380.757782,485.520264 380.673737,476.028992 
	C380.618744,469.819824 382.877106,462.604279 374.027710,460.375580 
	C374.713928,457.106506 376.881256,457.756104 378.543945,457.747559 
	C389.367767,457.691742 400.193634,457.829376 411.015320,457.668610 
	C414.679749,457.614166 416.809937,458.524292 416.500854,462.618439 
	C416.441620,463.402832 417.054230,464.225006 417.052612,465.029114 
	C417.047485,467.553650 418.841217,471.143463 416.180817,472.312714 
	C413.047485,473.689789 412.849426,469.498627 411.467773,467.717133 
	C408.395752,463.756134 399.604340,460.982574 394.609955,462.498596 
	C392.493744,463.140961 392.362640,464.688995 392.356262,466.403290 
	C392.340790,470.566345 392.457336,474.733337 392.311707,478.891418 
	C392.199951,482.082764 393.816650,483.008209 397.058594,482.768829 
z"/>
<path fill="#000000" opacity="1.000000" stroke="none" 
	d="
M252.572144,497.269257 
	C253.216263,498.871094 253.654160,500.141937 254.291412,501.303375 
	C260.916321,513.377747 276.231506,513.848938 283.582764,502.293976 
	C284.532562,500.801056 284.718414,497.745178 287.492493,498.651337 
	C290.847351,499.747162 288.486267,502.436218 288.208069,504.191010 
	C286.804626,513.043457 285.984192,513.672424 275.607208,515.853027 
	C262.175110,518.675598 247.380661,512.205322 241.847656,501.088409 
	C235.561081,488.457428 238.489990,472.381104 249.115631,463.758820 
	C259.560120,455.283508 271.325623,455.011871 283.548615,459.349548 
	C285.046631,459.881195 285.994659,460.768921 286.415558,462.458344 
	C287.355194,466.229645 287.322784,470.051636 287.420807,473.876923 
	C287.447815,474.930756 287.302643,475.928894 285.999664,476.107269 
	C284.868469,476.262146 284.088928,475.763184 283.708008,474.660553 
	C283.490601,474.031281 283.240784,473.412964 282.996155,472.793396 
	C279.824310,464.759247 276.216064,462.093842 268.634521,462.181732 
	C261.281464,462.266998 255.531738,466.224487 253.068542,473.276123 
	C250.355621,481.042603 250.715637,488.965942 252.572144,497.269257 
z"/>
<path fill="#000000" opacity="1.000000" stroke="none" 
	d="
M499.621643,465.530762 
	C498.200104,467.391876 497.018707,468.995087 495.913696,470.649384 
	C495.233154,471.668213 494.574249,472.600037 493.136749,472.183075 
	C491.635712,471.747742 491.641113,470.450226 491.744049,469.332825 
	C492.033478,466.189545 492.377136,463.043427 492.900024,459.932129 
	C493.267273,457.746521 495.182220,457.782471 496.847321,457.778564 
	C510.179626,457.747192 523.512085,457.766235 536.844360,457.722900 
	C538.929871,457.716125 540.452332,458.296173 540.816650,460.556488 
	C541.471497,464.620361 541.758789,468.682922 540.961548,472.629395 
	C538.554504,473.418610 538.012268,471.896423 537.367004,470.545258 
	C536.199280,468.100037 534.739075,465.848114 532.341248,464.481201 
	C529.718994,462.986359 526.714233,461.322632 523.884827,462.875824 
	C521.522888,464.172394 522.985046,467.173187 522.947144,469.380707 
	C522.743835,481.207245 522.731262,493.036896 522.604065,504.864990 
	C522.569824,508.052063 523.472046,510.343414 527.010681,511.034912 
	C528.335815,511.293854 530.303833,511.566742 529.924072,513.699890 
	C529.619324,515.411865 527.994324,515.297119 526.686462,515.302612 
	C520.187134,515.330078 513.687439,515.334778 507.188354,515.286438 
	C505.894470,515.276855 504.350220,515.330872 504.094543,513.515076 
	C503.870239,511.922150 505.229614,511.504059 506.304626,511.314117 
	C511.081512,510.470215 511.649628,507.050964 511.636353,503.112701 
	C511.597107,491.446869 511.649139,479.780670 511.593353,468.114990 
	C511.565399,462.267212 509.792572,461.021912 504.288239,462.969482 
	C502.742767,463.516266 501.354401,464.507172 499.621643,465.530762 
z"/>
<path fill="#000000" opacity="1.000000" stroke="none" 
	d="
M689.962646,507.654938 
	C691.238464,493.998413 690.525513,480.695374 690.491150,467.402679 
	C690.485168,465.086060 689.482117,462.863861 686.714172,462.115326 
	C685.290283,461.730255 683.583374,461.179169 684.075562,459.174988 
	C684.488770,457.492462 686.159058,457.761566 687.423584,457.750946 
	C693.414673,457.700562 699.406616,457.707977 705.397888,457.747955 
	C706.680481,457.756531 708.242798,457.572632 708.473083,459.461945 
	C708.659363,460.989197 707.408203,461.507568 706.324036,461.790741 
	C702.632263,462.754913 702.058350,465.438660 702.078613,468.701233 
	C702.151855,480.518524 702.146667,492.336334 702.145935,504.153961 
	C702.145752,507.474365 702.249817,510.598053 706.685913,511.078400 
	C707.766296,511.195404 709.009399,511.835724 708.932983,513.325317 
	C708.838135,515.174744 707.366028,515.276489 706.031616,515.284058 
	C699.707153,515.319885 693.382263,515.317566 687.057800,515.276245 
	C685.735840,515.267639 684.242554,515.217529 684.010315,513.429077 
	C683.781494,511.666168 685.204773,511.212158 686.457520,510.794891 
	C687.955444,510.295898 689.150085,509.516663 689.962646,507.654938 
z"/>
<path fill="#000000" opacity="1.000000" stroke="none" 
	d="
M504.403625,560.435425 
	C496.841797,564.410889 490.042908,569.130676 481.781372,571.150208 
	C487.496399,564.175964 492.576538,556.723511 500.008850,551.537415 
	C502.290100,549.945557 505.249146,549.874756 507.024078,552.681885 
	C509.060394,555.902466 507.474213,558.324707 504.403625,560.435425 
z"/>
<path fill="#000000" opacity="1.000000" stroke="none" 
	d="
M688.751831,451.511108 
	C691.371887,447.351257 695.033813,444.745270 698.872742,442.481873 
	C701.308105,441.045990 704.307434,440.837769 705.774963,443.829712 
	C707.357117,447.055511 705.101807,448.549011 702.257996,449.569427 
	C698.990784,450.741760 695.852905,452.270905 692.600525,453.489441 
	C690.937073,454.112640 688.882751,455.016022 688.751831,451.511108 
z"/>
</svg>