<?xml version="1.0" standalone="no"?>
<!DOCTYPE svg PUBLIC "-//W3C//DTD SVG 20010904//EN"
 "http://www.w3.org/TR/2001/REC-SVG-20010904/DTD/svg10.dtd">
<svg version="1.0" xmlns="http://www.w3.org/2000/svg"
 width="250.000000pt" height="250.000000pt" viewBox="0 0 250.000000 250.000000"
 preserveAspectRatio="xMidYMid meet">

<g transform="translate(0.000000,250.000000) scale(0.100000,-0.100000)"
fill="#000000" stroke="none">
<path d="M1191 1756 c-47 -50 -48 -143 -1 -194 31 -32 40 -27 40 22 0 25 5 67
11 94 13 54 6 102 -14 102 -8 0 -23 -11 -36 -24z"/>
<path d="M1268 1737 c2 -24 -3 -66 -11 -94 -27 -90 2 -133 53 -78 47 50 35
176 -19 205 -27 14 -27 15 -23 -33z"/>
<path d="M1695 1410 c-3 -5 -2 -10 4 -10 5 0 13 5 16 10 3 6 2 10 -4 10 -5 0
-13 -4 -16 -10z"/>
<path d="M614 1372 c-21 -13 -34 -52 -28 -77 9 -35 59 -61 90 -46 13 6 24 16
24 22 0 7 -8 5 -20 -6 -18 -17 -21 -17 -45 -1 -29 19 -35 75 -9 100 16 16 8
22 -12 8z"/>
<path d="M680 1365 c7 -9 15 -13 17 -11 7 7 -7 26 -19 26 -6 0 -6 -6 2 -15z"/>
<path d="M776 1328 c-11 -29 -23 -59 -29 -65 -7 -9 -5 -13 7 -13 9 0 15 3 15
8 -4 24 4 32 31 32 23 0 30 -4 30 -20 0 -13 7 -20 19 -20 19 0 18 4 -8 62 -16
34 -33 64 -38 65 -5 2 -17 -20 -27 -49z m34 -9 c0 -10 -7 -19 -15 -19 -16 0
-19 9 -9 34 8 20 24 11 24 -15z"/>
<path d="M925 1315 c0 -53 3 -65 16 -65 12 0 14 8 11 31 -4 30 -3 32 22 27 18
-4 26 -1 26 8 0 8 -9 13 -22 11 -19 -2 -23 3 -23 26 1 18 -4 27 -15 27 -12 0
-15 -13 -15 -65z"/>
<path d="M995 1370 c3 -5 8 -10 11 -10 2 0 4 5 4 10 0 6 -5 10 -11 10 -5 0 -7
-4 -4 -10z"/>
<path d="M1070 1315 c0 -55 3 -65 18 -65 13 0 17 8 15 37 -1 21 -2 50 -2 66
-1 17 -6 27 -16 27 -12 0 -15 -14 -15 -65z"/>
<path d="M1135 1370 c3 -5 10 -10 16 -10 5 0 9 5 9 10 0 6 -7 10 -16 10 -8 0
-12 -4 -9 -10z"/>
<path d="M1200 1370 c0 -5 7 -7 15 -4 8 4 15 8 15 10 0 2 -7 4 -15 4 -8 0 -15
-4 -15 -10z"/>
<path d="M1245 1315 c0 -51 3 -65 15 -65 12 0 15 14 15 65 0 51 -3 65 -15 65
-12 0 -15 -14 -15 -65z"/>
<path d="M1295 1370 c3 -5 10 -10 16 -10 5 0 9 5 9 10 0 6 -7 10 -16 10 -8 0
-12 -4 -9 -10z"/>
<path d="M1368 1315 c-3 -57 -1 -65 15 -65 12 0 17 8 17 31 0 26 3 31 20 26
13 -3 20 0 20 10 0 10 -6 12 -20 8 -17 -5 -20 -2 -20 24 0 20 -5 31 -14 31
-11 0 -15 -17 -18 -65z"/>
<path d="M1435 1370 c3 -5 8 -10 11 -10 2 0 4 5 4 10 0 6 -5 10 -11 10 -5 0
-7 -4 -4 -10z"/>
<path d="M1515 1315 c0 -51 3 -65 15 -65 12 0 15 14 15 65 0 51 -3 65 -15 65
-12 0 -15 -14 -15 -65z"/>
<path d="M1582 1361 c10 -16 9 -23 -5 -39 -16 -18 -16 -20 4 -45 27 -35 47
-35 24 -1 -12 19 -14 29 -6 37 16 16 13 54 -5 61 -24 9 -25 8 -12 -13z"/>
<path d="M1685 1315 c0 -51 3 -65 15 -65 12 0 15 14 15 65 0 51 -3 65 -15 65
-12 0 -15 -14 -15 -65z"/>
<path d="M1820 1377 c0 -2 -11 -31 -24 -65 -18 -46 -21 -62 -11 -62 7 0 12 8
11 18 -2 27 54 30 61 3 3 -12 12 -21 20 -21 8 0 13 6 10 13 -37 89 -51 117
-58 117 -5 0 -9 -1 -9 -3z m20 -64 c0 -7 -7 -13 -15 -13 -15 0 -21 31 -8 43 8
8 23 -12 23 -30z"/>
<path d="M1125 1320 c-3 -5 -1 -10 4 -10 6 0 11 5 11 10 0 6 -2 10 -4 10 -3 0
-8 -4 -11 -10z"/>
<path d="M1140 1260 c-13 -8 -12 -10 3 -10 9 0 17 5 17 10 0 12 -1 12 -20 0z"/>
<path d="M1435 1260 c-19 -8 -19 -9 3 -9 12 -1 22 4 22 9 0 6 -1 10 -2 9 -2 0
-12 -4 -23 -9z"/>
<path d="M1206 1141 c-19 -21 -12 -28 13 -12 7 5 12 14 9 21 -2 7 -10 4 -22
-9z"/>
<path d="M368 1093 c8 -3 12 -36 12 -117 0 -76 -4 -116 -12 -125 -19 -20 139
-8 181 13 39 21 71 71 71 112 0 43 -39 97 -80 111 -33 11 -200 17 -172 6z
m175 -43 c22 -25 27 -40 27 -81 0 -43 -5 -55 -29 -80 -23 -23 -39 -29 -70 -29
l-41 0 0 116 0 117 43 -6 c30 -4 50 -14 70 -37z"/>
<path d="M673 1089 c14 -8 17 -26 17 -116 0 -89 -3 -108 -17 -119 -15 -11 -4
-13 78 -14 101 0 109 4 109 48 0 12 -4 11 -23 -6 -16 -15 -36 -22 -65 -22
l-42 0 0 55 c0 53 1 55 27 55 14 0 35 -7 45 -17 17 -15 18 -14 18 21 0 36 0
37 -22 22 -12 -9 -33 -16 -45 -16 -21 0 -23 4 -23 56 l0 57 42 -6 c23 -3 47
-13 54 -21 16 -23 22 -20 16 9 -4 25 -6 25 -96 25 -67 -1 -86 -3 -73 -11z"/>
<path d="M923 1089 c25 -14 25 -203 0 -231 -15 -17 -13 -18 71 -18 84 0 87 1
96 26 16 42 11 49 -15 20 -17 -19 -34 -26 -60 -26 l-35 0 0 108 c0 71 4 112
12 120 9 9 1 12 -37 12 -39 -1 -46 -3 -32 -11z"/>
<path d="M1154 1084 c23 -23 23 -200 -1 -226 -15 -17 -14 -18 32 -18 38 0 46
3 37 12 -16 16 -16 220 0 236 9 9 1 12 -36 12 -43 0 -46 -1 -32 -16z"/>
<path d="M1329 1077 c-22 -15 -39 -38 -49 -65 -13 -37 -13 -47 0 -84 20 -55
56 -80 123 -86 46 -4 58 -1 76 17 11 11 21 28 21 37 0 13 -5 11 -23 -8 -33
-36 -61 -42 -100 -23 -42 20 -57 51 -57 116 0 42 5 55 29 80 45 44 100 38 129
-16 10 -18 11 -17 12 11 0 37 -12 44 -79 44 -33 0 -58 -7 -82 -23z"/>
<path d="M1564 1084 c23 -22 23 -190 0 -222 -15 -22 -15 -22 31 -22 45 0 45 0
31 23 -20 32 -17 214 4 227 11 7 1 10 -33 10 -44 0 -47 -1 -33 -16z"/>
<path d="M1757 1008 c-20 -51 -39 -102 -43 -113 -4 -11 -14 -28 -22 -37 -14
-17 -12 -18 22 -18 33 0 35 2 25 18 -7 11 -9 31 -5 45 6 25 11 27 55 27 46 0
50 -2 60 -31 8 -24 8 -36 0 -45 -9 -12 -3 -14 36 -14 42 0 46 2 34 16 -8 9
-34 66 -59 127 -25 61 -50 112 -56 114 -7 2 -27 -37 -47 -89z m55 -13 l17 -45
-34 0 c-20 0 -35 5 -35 12 0 17 23 78 30 78 3 0 13 -20 22 -45z"/>
<path d="M1990 1080 c-38 -38 -22 -74 48 -118 57 -35 70 -64 41 -93 -27 -27
-46 -24 -81 11 -34 35 -42 34 -33 -3 7 -27 29 -37 88 -37 48 0 77 28 77 75 0
35 -4 39 -80 88 -53 35 -52 86 3 87 10 0 29 -12 42 -26 l25 -27 0 25 c0 30
-16 38 -71 38 -26 0 -46 -7 -59 -20z"/>
</g>
</svg>
